<?xml version="1.0" standalone="no"?>
<!DOCTYPE svg PUBLIC "-//W3C//DTD SVG 1.1//EN" "http://www.w3.org/Graphics/SVG/1.1/DTD/svg11.dtd" >
<svg>
<metadata>
Created by FontForge 20110222 at Wed Jun 12 01:39:18 2013
 By Orthosie Webhosting
(c) 1990, 2001, 2002 Adobe Systems Incorporated. All rights reserved.
</metadata>
<defs>
<font id="ITCCheltenhamStdUltraCondensedItalic" horiz-adv-x="556" >
  <font-face 
    font-family="ITCCheltenhamStdUltraCondensedItalic"
    font-weight="800"
    font-style="italic"
    font-stretch="ultra-condensed"
    units-per-em="1000"
    panose-1="2 4 8 6 5 5 5 9 4 4"
    ascent="707"
    descent="-293"
    x-height="494"
    cap-height="700"
    bbox="-218 -234 1014 942"
    underline-thickness="50"
    underline-position="-50"
    slope="-16"
    unicode-range="U+0020-FB02"
  />
<missing-glyph horiz-adv-x="600" 
d="M100 0v700h500v-700h-500zM350 395l170 255h-340zM380 350l170 -255v510zM180 50h340l-170 255zM150 605v-510l170 255z" />
    <glyph glyph-name="f_i" unicode="fi" 
d="M-43 0l101 400h-67l9 38q4 18 16 26.5t24.5 10t27.5 10.5t24 28q54 110 111.5 155.5t165.5 45.5q76 0 124.5 -30.5t48.5 -81.5q0 -35 -23.5 -65.5t-69.5 -30.5q-32 0 -51.5 16.5t-19.5 47.5q0 7 4 21.5t4 22.5q0 24 -30 24q-41 0 -61.5 -34.5t-45.5 -123.5h210
q11 0 25.5 1t33 2.5t28.5 2.5l-79 -324q-9 -36 -7 -41q0 -26 22 -26q15 0 40 15l24 -46q-35 -35 -78.5 -56.5t-83.5 -21.5q-50 0 -77 23t-27 65q0 27 9 65l46 190q8 34 8 51q0 10 -9 15t-19 5h-84l-103 -400h-171z" />
    <glyph glyph-name="f_l" unicode="fl" 
d="M342 480l-22 -80h-89l-103 -400h-171l101 400h-67l9 38q4 18 16 26.5t24.5 10t27.5 10.5t24 28q54 110 111.5 155.5t165.5 45.5q45 0 90 -14h139l-131 -538q-9 -38 -9 -41q0 -24 22 -24q15 0 40 15l24 -46q-39 -39 -75.5 -58.5t-85.5 -19.5q-48 0 -75.5 27.5t-27.5 70.5
q0 18 13 72l90 383q-5 12 -5 26q0 10 2 26.5t2 24.5q0 20 -27 20q-34 0 -59.5 -37.5t-46.5 -120.5h93z" />
    <glyph glyph-name=".notdef" horiz-adv-x="600" 
d="M100 0v700h500v-700h-500zM350 395l170 255h-340zM380 350l170 -255v510zM180 50h340l-170 255zM150 605v-510l170 255z" />
    <glyph glyph-name=".null" horiz-adv-x="0" 
 />
    <glyph glyph-name="nonmarkingreturn" horiz-adv-x="333" 
 />
    <glyph glyph-name="space" unicode=" " horiz-adv-x="278" 
 />
    <glyph glyph-name="exclam" unicode="!" horiz-adv-x="333" 
d="M318 563l-155 -299h-49l12 297q6 153 139 153q40 0 61.5 -17.5t21.5 -48.5q0 -27 -30 -85zM202 119q0 -62 -35.5 -97.5t-78.5 -35.5q-44 0 -66 28.5t-22 68.5q0 62 35.5 97.5t78.5 35.5q44 0 66 -28.5t22 -68.5z" />
    <glyph glyph-name="quotedbl" unicode="&#x22;" horiz-adv-x="333" 
d="M80 389l-20 232q-6 93 51 93t51 -93l-20 -232q-4 -35 -31 -35t-31 35zM258 389l-20 232q-6 93 51 93t51 -93l-20 -232q-4 -35 -31 -35t-31 35z" />
    <glyph glyph-name="numbersign" unicode="#" 
d="M497 292v-96h-94l-25 -196h-100l25 196h-91l-25 -196h-98l25 196h-85v96h99l15 116h-84v96h98l27 196h100l-25 -196h91l25 196h98l-25 -196h79v-96h-92l-15 -116h77zM336 408h-93l-15 -116h93z" />
    <glyph glyph-name="dollar" unicode="$" 
d="M166 72l53 212q-58 42 -87.5 85t-29.5 103q0 93 65 158.5t164 69.5l20 70h60l-20 -76q58 -14 90.5 -47t32.5 -80q0 -36 -20.5 -56.5t-49.5 -20.5q-28 0 -43 16.5t-15 41.5q0 10 4 26.5t4 21.5q0 16 -22 27l-49 -187q46 -31 71 -53.5t43.5 -60t18.5 -86.5
q0 -97 -71.5 -166t-176.5 -70l-23 -86h-60l22 90q-20 5 -33.5 9t-36 14.5t-36 24t-24.5 37.5t-11 54q0 38 20 67.5t58 29.5q31 0 47.5 -17.5t16.5 -46.5q0 -17 -9 -40.5t-9 -29.5q0 -28 36 -34zM273 245l-46 -175q39 8 58 39.5t19 66.5q0 42 -31 69zM271 471l40 153
q-32 -7 -48.5 -31.5t-16.5 -58.5q0 -39 25 -63z" />
    <glyph glyph-name="percent" unicode="%" horiz-adv-x="833" 
d="M133 355q0 -29 26 -29q17 0 30.5 20t30.5 72q18 53 33 125.5t15 95.5q0 29 -26 29q-17 0 -30.5 -20t-30.5 -72q-18 -53 -33 -125.5t-15 -95.5zM679 714l-456 -728h-71l456 728h71zM566 61q0 -29 26 -29q17 0 30.5 20t30.5 72q18 53 33 125.5t15 95.5q0 29 -26 29
q-17 0 -30.5 -20t-30.5 -72q-18 -53 -33 -125.5t-15 -95.5zM21 422q0 65 24.5 130t79 113.5t126.5 48.5q63 0 96 -38t33 -104q0 -65 -24.5 -130t-79 -113.5t-126.5 -48.5q-63 0 -96 38t-33 104zM454 128q0 65 24.5 130t79 113.5t126.5 48.5q63 0 96 -38t33 -104
q0 -65 -24.5 -130t-79 -113.5t-126.5 -48.5q-63 0 -96 38t-33 104z" />
    <glyph glyph-name="ampersand" unicode="&#x26;" horiz-adv-x="778" 
d="M396 557q0 -44 17 -93q93 32 93 116q0 28 -14.5 43t-36.5 15q-26 0 -42.5 -21t-16.5 -60zM667 131l26 -47q-81 -98 -162 -98q-67 0 -126 67q-76 -67 -178 -67q-75 0 -140 55.5t-65 146.5q0 162 223 216q-11 51 -11 90q0 104 53 162t151 58q64 0 112 -35.5t48 -106.5
q0 -33 -14 -62t-40.5 -51t-51.5 -36.5t-58 -29.5q24 -79 67 -171q43 51 43 69q0 11 -13.5 23t-13.5 26q0 1 5 21l8 25h192l-12 -48q-4 -14 -13.5 -21t-29.5 -18t-37 -26q-22 -21 -54.5 -63t-38.5 -48q39 -57 74 -57q9 0 18 4t21 11.5t17 10.5zM206 227q0 -55 34.5 -90
t75.5 -35q26 0 41 11q-53 84 -91 215q-60 -26 -60 -101z" />
    <glyph glyph-name="quotesingle" unicode="'" horiz-adv-x="222" 
d="M107 389l-20 232q-6 93 51 93t51 -93l-20 -232q-4 -35 -31 -35t-31 35z" />
    <glyph glyph-name="parenleft" unicode="(" horiz-adv-x="444" 
d="M470 714l-13 -46q-49 -11 -79.5 -31t-63.5 -73.5t-64 -149.5q-90 -278 -90 -445q0 -117 89 -127l-13 -42h-10q-99 0 -158.5 75t-59.5 205q0 76 18.5 161t56 169t88.5 152t122.5 110t150.5 42h26z" />
    <glyph glyph-name="parenright" unicode=")" horiz-adv-x="444" 
d="M-62 -200l13 46q49 11 79.5 31t63.5 73.5t64 149.5q90 278 90 445q0 117 -89 127l13 42h10q99 0 158.5 -75t59.5 -205q0 -76 -18.5 -161t-56 -169t-88.5 -152t-122.5 -110t-150.5 -42h-26z" />
    <glyph glyph-name="asterisk" unicode="*" horiz-adv-x="500" 
d="M406 665l72 -115l-146 -35v-2l144 -27l-72 -115l-93 113l-2 -2l44 -150h-132l44 150l-2 2l-100 -108l-60 110l138 31v2l-143 31l73 115l92 -113l2 2l-44 146h132l-44 -145l2 -2z" />
    <glyph glyph-name="plus" unicode="+" horiz-adv-x="600" 
d="M240 300v180h120v-180h180v-120h-180v-180h-120v180h-180v120h180z" />
    <glyph glyph-name="comma" unicode="," horiz-adv-x="278" 
d="M-24 -234l-25 50q44 35 96 91.5t52 88.5q0 12 -11 12q-4 0 -13 -6t-21 -6q-30 0 -48 21.5t-18 66.5q0 58 34.5 96t74.5 38q46 0 69.5 -34.5t23.5 -90.5q0 -85 -64.5 -177.5t-149.5 -149.5z" />
    <glyph glyph-name="hyphen" unicode="-" horiz-adv-x="333" 
d="M30 304h257l-34 -128h-257z" />
    <glyph glyph-name="period" unicode="." horiz-adv-x="278" 
d="M188 119q0 -62 -35.5 -97.5t-78.5 -35.5q-44 0 -66 28.5t-22 68.5q0 62 35.5 97.5t78.5 35.5q44 0 66 -28.5t22 -68.5z" />
    <glyph glyph-name="slash" unicode="/" horiz-adv-x="278" 
d="M432 714l-459 -728h-127l464 728h122z" />
    <glyph glyph-name="zero" unicode="0" 
d="M200 -14q-82 0 -133 63.5t-51 168.5q0 125 44 238.5t123.5 185.5t172.5 72q82 0 133 -63.5t51 -168.5q0 -125 -44 -238.5t-123.5 -185.5t-172.5 -72zM208 62q31 0 57.5 51t58.5 161q32 108 46 195t14 122q0 47 -36 47q-31 0 -57.5 -51t-58.5 -161q-32 -108 -46 -195
t-14 -122q0 -47 36 -47z" />
    <glyph glyph-name="one" unicode="1" 
d="M238 552h-99l17 64l210 98h106l-147 -547q-7 -27 -7 -44q0 -16 7 -26.5t15.5 -14t15.5 -11t7 -19.5q0 -10 -5 -23l-9 -29h-325l9 39q4 19 17.5 31t27.5 16.5t28.5 16.5t19.5 32z" />
    <glyph glyph-name="two" unicode="2" 
d="M470 241l-65 -241h-445l33 120l103 83q109 87 174.5 178.5t65.5 162.5q0 84 -62 84q-44 0 -44 -25q0 -5 11 -22.5t11 -44.5q0 -40 -25 -72t-67 -32q-35 0 -53.5 24t-18.5 65q0 70 68 131.5t173 61.5q80 0 138.5 -48.5t58.5 -125.5q0 -173 -221 -285l-175 -87v-2h172
q33 0 54 7.5t30 19t16 22.5t20 18.5t35 7.5h13z" />
    <glyph glyph-name="three" unicode="3" 
d="M183 328l15 70q73 1 117.5 47.5t44.5 112.5q0 42 -21.5 61t-52.5 19q-18 0 -30.5 -5.5t-12.5 -14.5q0 -4 10.5 -23t10.5 -42q0 -33 -26.5 -62t-65.5 -29q-37 0 -55.5 24t-18.5 58q0 63 59.5 116.5t174.5 53.5q82 0 144 -41t62 -111q0 -78 -62 -123t-142 -55v-4
q80 -7 113 -42.5t33 -99.5q0 -100 -86.5 -176t-219.5 -76q-80 0 -136 46.5t-56 112.5q0 56 29.5 90.5t71.5 34.5q34 0 55.5 -22.5t21.5 -54.5q0 -24 -8 -41t-17.5 -24t-17.5 -14.5t-8 -16.5q0 -25 38 -25q64 0 103.5 54t39.5 111q0 30 -6.5 48t-23 27t-32 11.5t-45.5 4.5z
" />
    <glyph glyph-name="four" unicode="4" 
d="M249 284l74 265l-2 2l-230 -267h158zM503 284l-25 -100h-81q-15 -54 -15 -77q0 -15 17.5 -24.5t17.5 -23.5q0 -8 -5 -26l-8 -33h-296l9 39q6 22 21 33.5t29 14.5t27 14.5t17 33.5l12 47h-241l25 108l368 424h161l-114 -430h81z" />
    <glyph glyph-name="five" unicode="5" 
d="M108 325l-40 48l132 327h228q41 0 63.5 14t37.5 14h29l-55 -194h-292l-45 -106l2 -2q74 40 132 40q81 0 136.5 -52t55.5 -149q0 -118 -90.5 -198.5t-208.5 -80.5q-95 0 -148 43.5t-53 105.5q0 50 27 82t66 32q37 0 58 -23.5t21 -59.5q0 -30 -18 -51t-18 -28q0 -19 33 -19
q54 0 94.5 54.5t40.5 124.5q0 53 -26 80t-74 27q-51 0 -88 -29z" />
    <glyph glyph-name="six" unicode="6" 
d="M488 284q0 -111 -74 -204.5t-184 -93.5q-100 0 -152 68.5t-52 161.5q0 91 24.5 172.5t64.5 139.5t91 101t104 64t103 21q58 0 90.5 -28t32.5 -79q0 -43 -20.5 -75t-62.5 -32q-30 0 -47.5 17.5t-17.5 46.5q0 19 11 38t11 22q0 14 -18 14q-81 0 -144 -229q64 39 113 39
q61 0 94 -45t33 -119zM310 294q0 60 -38 60q-24 0 -44 -13q-46 -161 -46 -236q0 -43 31 -43q42 0 69.5 75.5t27.5 156.5z" />
    <glyph glyph-name="seven" unicode="7" 
d="M572 700l-21 -94q-1 -2 -25.5 -27t-54 -62.5t-62 -89.5t-58 -125t-34.5 -151q-10 -87 -41 -126t-86 -39q-40 0 -63 28t-23 71q0 56 21.5 113t51.5 101.5t76.5 91t83 76.5t83.5 65v2h-210q-22 0 -36.5 -12t-21.5 -26t-27 -26t-53 -12l68 256q14 -4 56 -10q29 -4 66 -4h310
z" />
    <glyph glyph-name="eight" unicode="8" 
d="M106 506q0 95 71.5 151.5t163.5 56.5q81 0 136 -39t55 -104q0 -103 -147 -163q42 -35 59 -52.5t31.5 -50.5t14.5 -76q0 -90 -77 -166.5t-200 -76.5q-91 0 -150 49t-59 131q0 130 175 196q-27 29 -39 44t-23 42t-11 58zM294 196q0 66 -66 120q-40 -22 -62 -69t-22 -90
q0 -95 59 -95q37 0 64 41.5t27 92.5zM276 553q0 -25 15.5 -54.5t45.5 -46.5q22 13 41.5 52t19.5 78q0 22 -12.5 39t-38.5 17q-35 0 -53 -28t-18 -57z" />
    <glyph glyph-name="nine" unicode="9" 
d="M14 116q0 13 3.5 28t12.5 33.5t28 30.5t45 12q33 0 54 -21.5t21 -52.5q0 -20 -15 -44t-15 -28q0 -12 20 -12q81 0 142 245l-17 -12q-3 -2 -13.5 -7t-30 -10.5t-36.5 -5.5q-74 0 -110.5 49t-36.5 123q0 107 77 188.5t183 81.5q89 0 145.5 -64t56.5 -166q0 -121 -44.5 -234
t-131 -188.5t-192.5 -75.5q-53 0 -99.5 32.5t-46.5 97.5zM244 412q0 -46 35 -46q45 0 54 42q31 136 31 194q0 36 -25 36q-28 0 -51 -45t-33.5 -96t-10.5 -85z" />
    <glyph glyph-name="colon" unicode=":" horiz-adv-x="278" 
d="M188 119q0 -62 -35.5 -97.5t-78.5 -35.5q-44 0 -66 28.5t-22 68.5q0 62 35.5 97.5t78.5 35.5q44 0 66 -28.5t22 -68.5zM248 397q0 -62 -35.5 -97.5t-78.5 -35.5q-44 0 -66 28.5t-22 68.5q0 62 35.5 97.5t78.5 35.5q44 0 66 -28.5t22 -68.5z" />
    <glyph glyph-name="semicolon" unicode=";" horiz-adv-x="278" 
d="M-24 -234l-25 50q44 35 96 91.5t52 88.5q0 12 -11 12q-4 0 -13 -6t-21 -6q-30 0 -48 21.5t-18 66.5q0 58 34.5 96t74.5 38q46 0 69.5 -34.5t23.5 -90.5q0 -85 -64.5 -177.5t-149.5 -149.5zM248 397q0 -62 -35.5 -97.5t-78.5 -35.5q-44 0 -66 28.5t-22 68.5
q0 62 35.5 97.5t78.5 35.5q44 0 66 -28.5t22 -68.5z" />
    <glyph glyph-name="less" unicode="&#x3c;" horiz-adv-x="600" 
d="M522 97v-105l-480 204v87l480 205v-106l-333 -142z" />
    <glyph glyph-name="equal" unicode="=" horiz-adv-x="600" 
d="M540 407v-120h-480v120h480zM540 193v-120h-480v120h480z" />
    <glyph glyph-name="greater" unicode="&#x3e;" horiz-adv-x="600" 
d="M78 -8v105l333 143l-333 142v106l480 -205v-87z" />
    <glyph glyph-name="question" unicode="?" horiz-adv-x="500" 
d="M206 249h-58q3 41 29.5 83.5t56 73.5t54 75.5t24.5 89.5q0 67 -56 67q-14 0 -24.5 -5.5t-10.5 -14.5q0 -4 7.5 -22t7.5 -36q0 -40 -31 -73t-72 -33q-33 0 -54 23t-21 61q0 78 76 127t177 49q87 0 145 -39t58 -104q0 -49 -29.5 -88t-72.5 -65t-87 -49.5t-78 -54t-41 -65.5
zM236 112q0 -59 -35.5 -92.5t-78.5 -33.5q-44 0 -66 27t-22 64q0 59 35.5 92.5t78.5 33.5q44 0 66 -27t22 -64z" />
    <glyph glyph-name="at" unicode="@" horiz-adv-x="800" 
d="M465 478q-46 0 -80.5 -56t-34.5 -130q0 -72 48 -72q43 0 75.5 64t32.5 138q0 56 -41 56zM529 492l9 34h80l-56 -234q-6 -24 -6 -36q0 -48 29 -48q31 0 59 64t28 130q0 90 -68.5 156t-184.5 66q-113 0 -180 -81t-67 -207q0 -119 77 -189.5t180 -70.5q114 0 208 50l12 -83
q-110 -55 -227 -55q-159 0 -272.5 98t-113.5 248q0 166 112 272t271 106q146 0 245.5 -88.5t99.5 -220.5q0 -90 -54 -170.5t-141 -80.5q-65 0 -87 65h-2q-53 -65 -129 -65q-47 0 -78 38.5t-31 98.5q0 98 61.5 177.5t149.5 79.5q33 0 48.5 -14t25.5 -40h2z" />
    <glyph glyph-name="A" unicode="A" horiz-adv-x="611" 
d="M169 254h134l-18 208h-2zM311 168h-187q-24 -41 -24 -60t21 -29.5t21 -24.5q0 -4 -14 -54h-206l8 33q6 26 16 36.5t19.5 10.5t25 11.5t30.5 38.5l256 456l-3 26q-1 9 -1 24q0 11 5 16.5t19 11.5l87 35q37 15 44 15q10 0 13 -21l60 -552q3 -25 12 -39.5t18 -18t16 -10
t7 -17.5q0 -1 -8 -36l-5 -20h-291l8 43q4 22 31.5 34t27.5 31q0 16 -6 60z" />
    <glyph glyph-name="B" unicode="B" horiz-adv-x="611" 
d="M27 120l111 419q10 36 10 52q0 17 -18 31.5t-18 29.5q0 10 5 25l8 23h297q42 0 71.5 -4.5t58.5 -18t43.5 -41.5t14.5 -70q0 -84 -53 -138t-150 -59v-2q66 -10 102.5 -48.5t36.5 -95.5q0 -223 -311 -223h-293l13 53q3 13 34 26.5t38 40.5zM265 316l-64 -230h27q62 0 92 50
q36 59 36 115q0 30 -14 45t-30 17.5t-47 2.5zM350 614l-58 -206q69 0 102 45q32 44 32 99q0 37 -18.5 49.5t-57.5 12.5z" />
    <glyph glyph-name="C" unicode="C" 
d="M601 686l-60 -230h-20q-9 0 -15.5 2.5t-11 7.5t-7 10.5t-4.5 15t-2.5 15.5t-1.5 18.5t-2 18.5q-10 84 -63 84q-50 0 -96.5 -84t-71 -183.5t-24.5 -165.5q0 -115 75 -115q41 0 85.5 42.5t68.5 124.5l47 -42q-21 -93 -91 -156t-160 -63q-93 0 -157 67t-64 198
q0 96 33 183.5t85.5 148t116.5 96t126 35.5q36 0 62.5 -11t42.5 -22.5t26 -11.5q16 0 21 17h62z" />
    <glyph glyph-name="D" unicode="D" horiz-adv-x="667" 
d="M358 614l-145 -528h26q52 0 85 38q30 34 75 189.5t45 224.5q0 42 -15 59t-48 17h-23zM35 120l111 419q10 36 10 52q0 17 -18 31.5t-18 29.5q0 10 5 25l8 23h275q100 0 163 -60t63 -172q0 -106 -40 -211q-52 -137 -133.5 -197t-226.5 -60h-284l13 53q3 13 34 26.5t38 40.5
z" />
    <glyph glyph-name="E" unicode="E" 
d="M30 120l111 419q10 36 10 52q0 17 -18 31.5t-18 29.5q0 10 5 25l8 23h342q95 0 130 14l-59 -216h-19q-13 0 -20 6.5t-9 14t-5 26t-6 31.5q-6 22 -25 30t-61 8h-49l-54 -206h16q44 0 62 33q22 39 40 39h35l-66 -244h-20q-6 0 -10 2t-6.5 4.5t-4.5 8.5t-3 10t-2.5 14
t-2.5 16q-4 18 -12.5 24.5t-27.5 6.5h-20l-63 -236h73q76 0 116 66q7 11 15.5 26t12 20.5t9 13t10 9.5t11 4t15.5 2h21l-60 -227h-486l13 53q3 13 34 26.5t38 40.5z" />
    <glyph glyph-name="F" unicode="F" horiz-adv-x="500" 
d="M436 472l-67 -250h-16q-12 0 -19 7t-9.5 15t-4.5 23t-4 21q-7 28 -30 28h-21l-46 -170q-10 -37 -10 -47q0 -11 16.5 -21.5t16.5 -25.5q0 -12 -11 -52h-289l6 38q2 15 12 24t21 13t23 16.5t18 32.5l113 418q12 41 12 49q0 18 -16.5 31.5t-16.5 25.5q0 16 5 34l6 18h357
q40 0 108 14l-64 -234h-10q-22 0 -30 12.5t-12 47.5q-5 41 -20 57.5t-53 16.5h-54l-58 -212h18q31 0 51 23q7 8 15.5 22.5t15.5 19.5t22 5h25z" />
    <glyph glyph-name="G" unicode="G" horiz-adv-x="611" 
d="M315 354h239q-5 -5 -9.5 -15.5t-10.5 -32.5t-11 -36q-29 -85 -29 -118q0 -11 4 -19t8 -11t13 -10l-5 -30q-15 -38 -81 -67t-141 -29q-132 0 -201 76t-69 200q0 94 30 179.5t79 144.5t110.5 93.5t124.5 34.5q38 0 66.5 -12.5t47 -25t31.5 -12.5q22 0 28 17h52l-63 -231
h-19q-22 0 -31 21t-15 61q-4 26 -6.5 38.5t-8.5 31.5t-17.5 27.5t-27.5 8.5q-49 0 -98.5 -101.5t-77 -218t-27.5 -182.5q0 -70 40 -70q38 0 67 78q23 61 23 94q0 21 -13.5 34t-13.5 28q0 6 12 54z" />
    <glyph glyph-name="H" unicode="H" horiz-adv-x="667" 
d="M392 318h-127l-57 -207q-5 -22 3.5 -31t8.5 -15q0 -15 -13 -65h-269l9 38q5 20 15 29t20 11.5t22 17.5t21 45l109 404q11 39 11 48q0 17 -15.5 31t-15.5 24q0 20 12 52h270l-12 -55q-5 -20 -24 -30.5t-24 -30.5l-47 -180h126l42 148q7 25 7 42q0 14 -7 25t-7 21t15 60
h263l-14 -53q-3 -15 -29.5 -32t-36.5 -51l-114 -423q-7 -24 -3.5 -38t11 -19t14.5 -13t7 -19q0 -10 -14 -52h-274l11 49q3 14 10 19.5t14 6.5t15 11t13 31z" />
    <glyph glyph-name="I" unicode="I" horiz-adv-x="389" 
d="M39 120l111 419q10 36 10 52q0 17 -18 31.5t-18 29.5q0 10 5 25l8 23h297l-15 -52q-3 -12 -12.5 -18.5t-19 -9.5t-19.5 -14t-15 -31l-112 -423q-7 -28 -7 -46q0 -14 16.5 -28t16.5 -28q0 -17 -14 -50h-299l13 53q3 13 34 26.5t38 40.5z" />
    <glyph glyph-name="J" unicode="J" horiz-adv-x="500" 
d="M287 700h285l-17 -64q-2 -9 -10 -13.5t-17 -6t-18.5 -10.5t-13.5 -27l-90 -372q-23 -93 -93.5 -157t-184.5 -64q-84 0 -134 43.5t-50 113.5q0 57 32.5 97t78.5 40q39 0 62 -23.5t23 -65.5q0 -43 -31 -74q-4 -4 -10.5 -9.5t-10 -8t-6 -7t-2.5 -9.5q0 -17 26 -17
q36 0 64 36.5t39 81.5l87 339q14 54 14 62q0 17 -17.5 32t-17.5 28q0 3 12 55z" />
    <glyph glyph-name="K" unicode="K" horiz-adv-x="611" 
d="M279 395l171 179q21 23 21 34q0 10 -12.5 20t-12.5 20q0 13 15 52h229l-11 -46q-3 -14 -16 -21t-45.5 -21.5t-65.5 -39.5q-22 -16 -46 -41t-46.5 -51t-25.5 -30l83 -329q5 -22 19.5 -32.5t25.5 -17t11 -19.5t-12 -52h-286l8 42q5 22 25.5 34t20.5 30q0 10 -11 52l-51 195
h-2l-47 -186q-12 -47 -12 -63q0 -14 12 -27t12 -23t-12 -54h-282l9 39q4 19 14.5 28.5t20.5 12t21 13t16 31.5l111 425q8 32 8 51q0 13 -13.5 24.5t-13.5 19.5q0 3 3 21l8 35h271l-11 -47q-3 -12 -10.5 -19.5t-15 -11t-16.5 -16t-15 -34.5l-46 -175z" />
    <glyph glyph-name="L" unicode="L" horiz-adv-x="500" 
d="M125 700h288l-11 -49q-3 -14 -12.5 -21.5t-19 -10t-20 -13t-15.5 -29.5l-128 -491h56q53 0 88 37q15 16 30 44.5t26.5 45t27.5 16.5h30l-59 -229h-464l13 53q3 13 34 26.5t38 40.5l111 419q10 36 10 52q0 17 -18 31.5t-18 29.5q0 10 5 25z" />
    <glyph glyph-name="M" unicode="M" horiz-adv-x="778" 
d="M462 139l114 427h-2l-312 -566h-64v556h-2l-109 -412q-6 -22 -6 -35q0 -21 17.5 -33.5t17.5 -26.5q0 -7 -12 -49h-175l13 53q3 13 34 26.5t38 40.5l111 419q10 36 10 52q0 17 -18 31.5t-18 29.5q0 10 5 25l8 23h270v-340h3l194 340h276l-6 -34q-4 -21 -14.5 -31.5
t-22 -12.5t-24.5 -15t-20 -39l-103 -381q-15 -54 -15 -72q0 -23 17 -36t17 -24q0 -20 -14 -55h-295l8 41q4 20 14.5 28.5t21.5 10t23.5 15.5t19.5 44z" />
    <glyph glyph-name="N" unicode="N" horiz-adv-x="611" 
d="M124 0h-186l8 38q5 24 36.5 40.5t36.5 36.5l123 449q4 16 4 23q0 15 -19.5 30.5t-19.5 34.5q0 6 12 48h241l85 -478h2l89 320q8 24 8 46q0 20 -18.5 33.5t-18.5 26.5q0 11 5 28l7 24h187l-12 -50q-3 -13 -14.5 -21.5t-24.5 -12.5t-26.5 -18.5t-19.5 -37.5l-154 -560h-155
l-96 536h-2l-102 -386q-7 -30 -7 -39q0 -19 20.5 -33.5t20.5 -29.5q0 -12 -4 -25z" />
    <glyph glyph-name="O" unicode="O" horiz-adv-x="611" 
d="M248 -14q-105 0 -167.5 77.5t-62.5 198.5q0 94 30.5 179.5t79 144.5t111.5 93.5t127 34.5q75 0 127.5 -39.5t75.5 -96.5t23 -123q0 -74 -22.5 -154t-63.5 -151.5t-109 -117.5t-149 -46zM242 62q41 0 66 62q30 74 65 235.5t35 226.5q0 52 -40 52q-41 0 -66 -62
q-30 -74 -65 -235.5t-35 -226.5q0 -52 40 -52z" />
    <glyph glyph-name="P" unicode="P" 
d="M338 614l-60 -225h10q27 0 47.5 21.5t30.5 52t15 57.5t5 45q0 49 -37 49h-11zM27 120l111 419q10 36 10 52q0 17 -18 31.5t-18 29.5q0 10 5 25l8 23h298q76 0 114.5 -40t38.5 -114q0 -109 -66.5 -176t-173.5 -67h-77l-41 -163q-5 -17 -5 -31q0 -18 15.5 -29t15.5 -24
q0 -24 -12 -56h-290l13 53q3 13 34 26.5t38 40.5z" />
    <glyph glyph-name="Q" unicode="Q" horiz-adv-x="611" 
d="M523 -60l18 -41q-35 -41 -68 -62t-84 -21q-86 0 -141 100q-3 4 -8.5 13t-7.5 12.5t-7 10.5t-7.5 10t-7.5 8.5t-10 9t-11.5 8t-14.5 9t-17 8.5q-66 30 -102.5 98.5t-36.5 158.5q0 94 30.5 179.5t79 144.5t111.5 93.5t127 34.5q75 0 127.5 -39.5t75.5 -96.5t23 -123
q0 -70 -20 -145.5t-57.5 -144.5t-99 -117.5t-136.5 -58.5h1v-2q61 -7 117 -33t73 -26q27 0 53 12zM242 62q41 0 66 62q30 74 65 235.5t35 226.5q0 52 -40 52q-41 0 -66 -62q-30 -74 -65 -235.5t-35 -226.5q0 -52 40 -52z" />
    <glyph glyph-name="R" unicode="R" horiz-adv-x="611" 
d="M330 614l-56 -214h14q53 0 82.5 51.5t30.5 104.5q1 58 -51 58h-20zM16 120l111 419q10 36 10 52q0 17 -16 31.5t-16 29.5q0 10 5 25l8 23h310q84 0 123 -43t39 -107q0 -88 -57 -143t-165 -55v-2q29 -4 49 -14.5t31 -21t18.5 -35t10.5 -41t7.5 -57t8.5 -64.5t24.5 -35
t20.5 -26t-11 -56h-212l-21 252q-2 18 -2.5 25.5t-3.5 18t-7.5 14.5t-11.5 4h-17l-40 -157q-8 -28 -8 -41q0 -21 19 -33.5t19 -25.5q0 -5 -16 -57h-295l13 53q3 13 34 26.5t38 40.5z" />
    <glyph glyph-name="S" unicode="S" 
d="M-48 0l67 246h22q32 0 40 -49q9 -55 36 -86t67 -31q45 0 70.5 29.5t25.5 67.5q0 29 -18 56.5t-44 51t-52 49.5t-44 65t-18 85q0 96 66.5 163t147.5 67q38 0 67.5 -13t50 -26t36.5 -13q15 0 32 10.5t27 10.5h34l-64 -229h-13q-5 0 -9 1t-7.5 2t-6.5 4t-5 5.5t-4 7.5t-3 9
l-3 12t-3 13.5l-3 16.5t-4 19q-8 39 -29.5 57.5t-46.5 18.5q-31 0 -53.5 -22.5t-22.5 -59.5q0 -27 20 -52t48 -46.5t56 -46.5t48 -65t20 -90q0 -98 -72 -175t-170 -77q-43 0 -98.5 24t-81.5 24q-36 0 -56 -34h-50z" />
    <glyph glyph-name="T" unicode="T" 
d="M121 128l133 486h-24q-45 0 -76 -48q-7 -11 -20.5 -37.5t-23 -38t-21.5 -11.5h-34l60 234l1 1q28 -9 37 -11q18 -3 38 -3h356q62 0 87 14l1 -1l-66 -244h-34q-12 0 -15.5 17t-1 39.5t-1.5 44.5q-7 44 -50 44h-25l-115 -433q-13 -47 -13 -64q0 -24 19.5 -37.5t19.5 -26.5
q0 -6 -10 -53h-303l10 52q3 15 13 24t20.5 12.5t22 13.5t15.5 26z" />
    <glyph glyph-name="U" unicode="U" horiz-adv-x="611" 
d="M449 271l76 271q7 25 7 43q0 21 -9 30t-18 14t-9 17q0 4 4 24l8 30h190l-12 -43q-4 -16 -16 -25.5t-25 -14.5t-28.5 -24.5t-24.5 -52.5l-92 -336q-34 -123 -101 -170.5t-181 -47.5q-88 0 -143 44t-55 119q0 39 22 120l74 266q12 38 12 51q0 23 -17.5 32t-17.5 25
q0 12 4 24l11 33h299l-11 -46q-4 -16 -13.5 -25t-18.5 -12t-19.5 -14.5t-15.5 -31.5l-100 -359q-11 -40 -11 -62q0 -78 73 -78q30 0 53 11t37.5 25.5t28 45.5t20.5 52.5t19 64.5z" />
    <glyph glyph-name="V" unicode="V" 
d="M277 206l171 310q29 52 29 77q0 18 -19.5 31.5t-19.5 24.5q0 10 6 29t7 22h199l-14 -51q-3 -11 -11.5 -17.5t-18.5 -10.5t-24 -17t-26 -34l-318 -570h-134l-22 583q-1 21 -10 31.5t-17.5 16t-8.5 16.5q0 9 13 53h294l-16 -55q-4 -13 -21.5 -19t-32.5 -17t-15 -36
q0 -34 1 -86t3 -133.5t3 -147.5h2z" />
    <glyph glyph-name="W" unicode="W" horiz-adv-x="833" 
d="M408 365l-180 -365h-134l-15 580q-1 26 -17 43.5t-16 24.5q0 35 13 52h273l-16 -49q-5 -16 -27.5 -29t-22.5 -34v-350h2l142 279v79q0 12 -14 27t-14 25t16 52h265l-17 -54q-4 -11 -13 -16.5t-17 -8t-15 -14t-7 -32.5l-6 -341h2l151 304q21 42 21 57q0 20 -17 30.5
t-17 25.5q0 4 15 49h184l-13 -45q-4 -15 -12.5 -22.5t-16.5 -9.5t-20 -12.5t-22 -29.5l-301 -581h-132v365h-2z" />
    <glyph glyph-name="X" unicode="X" horiz-adv-x="611" 
d="M104 700h301l-11 -50q-4 -17 -30 -26.5t-26 -24.5q0 -12 12 -52l30 -97l95 104q23 27 23 44q0 11 -16 24.5t-16 19.5q0 27 11 58h209l-13 -46q-4 -16 -31.5 -32t-37.5 -27l-201 -222l76 -252q5 -18 18.5 -28t24 -17t10.5 -19q0 -15 -11 -57h-309l10 50q2 11 12.5 19
t21.5 11.5t20 10.5t9 17t-11 48l-32 103l-96 -114q-22 -26 -22 -40q0 -12 13 -24t13 -25q0 -14 -12 -56h-228l11 44q5 20 51.5 43.5t64.5 43.5l181 202l-67 237q-5 20 -16 32t-20.5 16t-17 11t-7.5 19q0 10 14 52z" />
    <glyph glyph-name="Y" unicode="Y" 
d="M121 118l47 174l-63 267q-7 30 -17.5 46t-18 18t-13.5 6t-6 12q0 16 7 42l4 17h307l-15 -55q-3 -11 -13.5 -17.5t-21 -8.5t-18.5 -10.5t-8 -23.5q0 -12 10 -54l35 -158l101 151q34 49 34 73q0 15 -15 25t-15 24q0 8 3.5 18.5t9 21.5t6.5 14h193l-8 -38q-4 -17 -13.5 -26
t-21.5 -13t-32 -20.5t-39 -45.5l-189 -290l-30 -115q-9 -31 -9 -40q0 -14 19 -27t19 -23q0 -13 -5 -35l-7 -27h-300l12 45q5 18 15.5 27.5t21 12t20.5 10.5t14 23z" />
    <glyph glyph-name="Z" unicode="Z" 
d="M500 229l-57 -229h-483l24 91l370 523h-96q-29 0 -45 -15t-29 -42q-1 -2 -6 -13t-6 -13.5t-6 -11.5t-7.5 -12t-8 -9t-10 -8t-11 -4t-13.5 -2h-29l60 230q22 -8 65 -12q24 -2 65 -2h319l-22 -88l-370 -526h53q68 0 98 16t51 55q4 7 11.5 24t12.5 25t16 15.5t26 7.5h28z
" />
    <glyph glyph-name="bracketleft" unicode="[" horiz-adv-x="444" 
d="M-28 -186l229 886h231l-7 -31q-5 -22 -44 -36t-44 -36l-158 -606q-1 -5 -6 -22t-7.5 -29t-2.5 -24q0 -17 24.5 -28.5t24.5 -31.5q0 -12 -5 -24l-7 -18h-228z" />
    <glyph glyph-name="backslash" unicode="\" horiz-adv-x="278" 
d="M-37 714h120l232 -728h-114z" />
    <glyph glyph-name="bracketright" unicode="]" horiz-adv-x="444" 
d="M432 700l-229 -886h-231l7 31q5 22 44 36t44 36l158 606q1 5 6 22t7.5 29t2.5 24q0 17 -24.5 28.5t-24.5 31.5q0 12 5 24l7 18h228z" />
    <glyph glyph-name="asciicircum" unicode="^" horiz-adv-x="600" 
d="M189 335h-116l174 365h106l174 -365h-117l-110 247z" />
    <glyph glyph-name="underscore" unicode="_" horiz-adv-x="500" 
d="M500 -125h-500v50h500v-50z" />
    <glyph glyph-name="grave" unicode="`" horiz-adv-x="333" 
d="M326 552h-63l-125 80q-42 28 -42 55q0 29 19 43t42 14q35 0 76 -58z" />
    <glyph glyph-name="a" unicode="a" 
d="M507 127l16 -33q-15 -45 -63.5 -76.5t-97.5 -31.5q-29 0 -50 10t-33.5 28t-17 26.5t-9.5 23.5q-13 -15 -29.5 -31.5t-50.5 -36.5t-65 -20q-53 0 -85 44t-32 106q0 78 28 147t71.5 114t95 71t100.5 26q39 0 75.5 -25t52.5 -25q20 0 65 24l44 25q5 0 5 -7q0 -1 -2 -8.5
t-8 -29t-13 -46.5l-58 -220q-10 -37 -10 -59q0 -27 19 -27q16 0 52 31zM260 149l52 192q12 44 12 50q0 17 -18 17q-38 0 -70 -51t-47 -107.5t-15 -90.5q0 -47 32 -47q15 0 34 15.5t20 21.5z" />
    <glyph glyph-name="b" unicode="b" 
d="M338 700l-74 -267l2 -2q78 63 139 63q49 0 74 -36.5t25 -88.5q0 -46 -11.5 -96.5t-37.5 -102t-63.5 -92t-94.5 -66.5t-124 -26q-73 0 -120 33t-47 96q0 21 18 88l91 322q15 54 15 75t-19.5 32.5t-19.5 22.5q0 3 4 17l6 24zM240 344l-67 -232q-7 -21 -7 -34q0 -16 18 -16
q41 0 80 73q56 105 56 184q0 18 -9.5 30.5t-26.5 12.5q-19 0 -44 -18z" />
    <glyph glyph-name="c" unicode="c" horiz-adv-x="500" 
d="M384 155l26 -50q-34 -54 -94 -86.5t-132 -32.5q-79 0 -127.5 48t-48.5 125q0 134 98.5 234.5t225.5 100.5q71 0 103.5 -33.5t32.5 -83.5q0 -43 -26.5 -75t-64.5 -32q-28 0 -42.5 15t-14.5 40q0 14 9 41t9 30q0 12 -17 12q-38 0 -83.5 -82t-45.5 -163q0 -37 17.5 -57
t49.5 -20q67 0 125 69z" />
    <glyph glyph-name="d" unicode="d" 
d="M491 128l21 -34q-30 -44 -75.5 -76t-94.5 -32q-22 0 -37.5 7t-26 22.5t-14 22.5t-10.5 26l-24 -20q-23 -20 -36 -28.5t-39.5 -19t-51.5 -10.5q-51 0 -81 40.5t-30 109.5q0 78 26.5 147t67 114t88 71t90.5 26q41 0 82 -31l18 67q9 36 9 58q0 21 -16.5 35.5t-16.5 25.5
q0 6 1.5 14t3.5 17t3 12l236 8l-138 -507q-16 -60 -16 -66q0 -22 18 -22q21 0 43 23zM176 146q0 -40 28 -40q30 0 56 37l51 191q8 32 8 51q0 23 -20 23q-42 0 -82.5 -102.5t-40.5 -159.5z" />
    <glyph glyph-name="e" unicode="e" horiz-adv-x="500" 
d="M384 139l18 -50q-42 -46 -100 -74.5t-117 -28.5q-79 0 -130 51.5t-51 121.5q0 138 100.5 236.5t233.5 98.5q64 0 102 -31t38 -75q0 -76 -66 -129t-176 -53h-38q-10 -40 -10 -61q0 -34 16.5 -49.5t52.5 -15.5q9 0 17 1t16.5 3t14 3.5t14.5 6.5t12.5 7t13 8.5t12.5 8.5
t14 10.5t13 10.5zM328 418q-28 0 -61 -44.5t-48 -97.5q57 4 96 42t39 74q0 12 -7.5 19t-18.5 7z" />
    <glyph glyph-name="f" unicode="f" horiz-adv-x="333" 
d="M250 400l-97 -400h-171l98 400h-68l8 38q4 21 17.5 30t32.5 15t29 16q6 6 17.5 32t28.5 55t42.5 59t67.5 49.5t95 19.5q63 0 97.5 -31t34.5 -74q0 -34 -22 -57.5t-58 -23.5q-29 0 -44.5 15t-15.5 40q0 14 8 29.5t8 19.5q0 10 -15 10q-34 0 -52 -72l-22 -90h93l-18 -80
h-94z" />
    <glyph glyph-name="g" unicode="g" 
d="M161 157l-45 -59q43 8 88 8q112 0 174 -35.5t62 -101.5q0 -74 -80 -128.5t-217 -54.5q-80 0 -125.5 27.5t-45.5 78.5q0 29 18.5 48.5t52.5 19.5q28 0 44 -12.5t16 -33.5q0 -7 -4.5 -18.5t-4.5 -17.5q0 -22 45 -22q51 0 81 21t30 54q0 35 -34 48t-105 13q-43 0 -70 -3
q-7 0 -22 -1.5t-22 -1.5q-18 0 -18 15q0 9 9 22l116 165q-21 10 -39.5 39.5t-18.5 66.5q0 96 67.5 148t157.5 52q75 0 133 -38q16 46 37 68t50 22q27 0 43 -16.5t16 -40.5q0 -26 -14 -41.5t-35 -15.5q-11 0 -23 5t-16 5q-7 0 -13 -5.5t-6 -12.5q0 -4 8.5 -16t16.5 -35t8 -54
q0 -78 -64 -126.5t-164 -48.5q-42 0 -87 13zM212 238q0 -29 21 -29q32 0 55.5 70t23.5 120q0 29 -21 29q-32 0 -55.5 -70t-23.5 -120z" />
    <glyph glyph-name="h" unicode="h" 
d="M345 700l-77 -266q56 33 87 46.5t61 13.5q40 0 63 -26.5t23 -73.5q0 -33 -33 -141.5t-33 -136.5q0 -9 5 -15.5t13 -6.5q15 0 41 15l21 -48q-45 -38 -81.5 -56.5t-76.5 -18.5q-47 0 -73.5 23t-26.5 65q0 45 30 148.5t30 122.5q0 23 -23 23q-25 0 -50 -28l-97 -340h-172
l151 547q10 36 10 53q0 21 -19.5 32.5t-19.5 22.5q0 3 4 17l6 24z" />
    <glyph glyph-name="i" unicode="i" horiz-adv-x="333" 
d="M308 494l-101 -320q-11 -38 -11 -53q0 -26 22 -26q15 0 40 15l24 -46q-34 -34 -81.5 -56t-88.5 -22q-49 0 -76.5 22t-27.5 60q0 26 14 77l48 171q8 26 8 43t-17 30t-17 24q0 9 16 49q117 0 248 32zM251 714q38 0 60.5 -26.5t22.5 -57.5q0 -42 -29.5 -79t-78.5 -37
q-35 0 -58.5 24t-23.5 59q0 47 29.5 82t77.5 35z" />
    <glyph glyph-name="j" unicode="j" horiz-adv-x="333" 
d="M303 494l-114 -456q-30 -119 -110 -185.5t-167 -66.5q-58 0 -94 27t-36 70q0 35 21 62t58 27q19 0 39 -13.5t20 -38.5q0 -13 -5.5 -28.5t-5.5 -20.5q0 -19 19 -19q16 0 30 23.5t32 92.5l82 315q11 42 11 57q0 20 -18.5 32.5t-18.5 28.5q0 13 4 29l7 22q146 0 246 42z
M246 714q38 0 60.5 -26.5t22.5 -57.5q0 -42 -29.5 -79t-78.5 -37q-35 0 -58.5 24t-23.5 59q0 47 29.5 82t77.5 35z" />
    <glyph glyph-name="k" unicode="k" 
d="M337 700l-74 -263l2 -2q80 59 146 59q45 0 71 -30t26 -84q0 -59 -34 -105.5t-86 -68.5q5 -14 12.5 -36.5t11.5 -32t10 -21.5t12.5 -16t14.5 -4q11 0 29 10l25 -41q-75 -79 -165 -79q-36 0 -56.5 21t-30.5 70l-16 76l-55 -9l-41 -144h-173l154 546q11 41 11 54
q0 21 -19.5 32.5t-19.5 22.5q0 3 4 17l6 24zM238 346l-37 -130q46 12 84.5 43.5t38.5 68.5q0 40 -34 40q-25 0 -52 -22z" />
    <glyph glyph-name="l" unicode="l" horiz-adv-x="333" 
d="M105 696l241 4l-151 -533q-11 -36 -11 -48q0 -24 22 -24q15 0 40 15l24 -46q-39 -39 -75.5 -58.5t-85.5 -19.5q-48 0 -76 28.5t-28 75.5q0 32 16 89l107 379q6 22 6 42q0 21 -19.5 32.5t-19.5 22.5q0 3 4 17z" />
    <glyph glyph-name="m" unicode="m" horiz-adv-x="833" 
d="M139 0h-173l87 303q8 27 8 45t-15 31t-15 27q0 15 7 30l9 20q85 0 230 38l-24 -83l2 -2q6 4 38.5 27t46 30.5t40.5 17.5t51 10q77 0 80 -87l36 24t46.5 29.5t40 17.5t47.5 10q44 0 73 -29t29 -69q0 -39 -33 -153t-33 -128q0 -21 20 -21q12 0 44 22l18 -41
q-40 -44 -74 -61q-44 -22 -97 -22q-43 0 -69 20.5t-26 57.5q0 36 33 153t33 135q0 26 -20 26q-27 0 -74 -45l-94 -333h-176l78 275q14 53 14 68q0 27 -24 27t-70 -37z" />
    <glyph glyph-name="n" unicode="n" 
d="M234 340l-92 -340h-176l83 295q11 37 11 60q0 22 -14 33t-14 17q0 19 8 41l6 16q118 6 227 32l-22 -79l1 -1q7 5 28.5 20t33.5 22.5t31.5 18t37 15t35.5 4.5q39 0 62.5 -29t23.5 -71t-32 -150.5t-32 -124.5q0 -25 21 -25q8 0 38 19l23 -38q-87 -89 -166 -89q-46 0 -73 26
t-27 69q0 34 32 140t32 123q0 11 -7 17.5t-17 6.5q-23 0 -62 -28z" />
    <glyph glyph-name="o" unicode="o" 
d="M-10 172q0 146 93 234t221 88q96 0 150 -51t54 -135q0 -146 -93 -234t-221 -88q-96 0 -150 51t-54 135zM330 372q0 46 -34 46q-28 0 -53.5 -39.5t-41 -93.5t-24.5 -103t-9 -74q0 -46 34 -46q28 0 53.5 39.5t41 93.5t24.5 103t9 74z" />
    <glyph glyph-name="p" unicode="p" 
d="M235 328l-52 -191q-5 -17 -5 -31q0 -20 26 -20q30 0 58 46.5t43 100.5t15 89q0 41 -30 41q-18 0 -35 -12.5t-20 -22.5zM89 -200h-174l131 480q12 44 12 64q0 22 -18 35.5t-18 24.5q0 9 5 24l10 28q57 2 128.5 12.5t112.5 25.5l-21 -75l2 -2q51 43 83.5 60t66.5 17
q46 0 70.5 -39t24.5 -106q0 -44 -15 -102t-43.5 -118.5t-80.5 -101.5t-116 -41q-55 0 -97 45z" />
    <glyph glyph-name="q" unicode="q" 
d="M526 439l-168 -639h-176l60 232q-70 -46 -130 -46q-55 0 -85.5 45t-30.5 114q0 75 27.5 142t70 111t94.5 70t101 26q42 0 83 -23t61 -23q23 0 57 16t36 16q7 0 7 -7q0 -4 -7 -34zM270 140l55 213q5 20 5 40q0 15 -17 15q-32 0 -64 -50t-50.5 -111t-18.5 -103
q0 -38 33 -38t57 34z" />
    <glyph glyph-name="r" unicode="r" horiz-adv-x="444" 
d="M214 186l-53 -186h-176l47 182q24 90 24 130q0 26 -9 41.5t-19.5 20.5t-19.5 14t-9 22q0 18 2 40q124 14 217 44v-162h2q10 19 24.5 41.5t37 52.5t49.5 49t51 19q28 0 51 -24t23 -69q0 -46 -25.5 -79.5t-59.5 -33.5q-17 0 -28 7.5t-15 16.5t-10 16.5t-13 7.5
q-20 0 -47.5 -46.5t-43.5 -103.5z" />
    <glyph glyph-name="s" unicode="s" horiz-adv-x="444" 
d="M35 184q31 0 46 -17.5t15 -37.5q0 -13 -8 -27t-8 -20q0 -8 10 -14t28 -6q23 0 41.5 15t18.5 38q0 22 -21.5 46t-47.5 43.5t-47.5 53t-21.5 71.5q0 75 65.5 120t149.5 45q77 0 115 -28.5t38 -70.5q0 -31 -18 -51t-44 -20q-25 0 -38.5 12.5t-13.5 31.5q0 8 2 20t2 16
q0 18 -25 18q-23 0 -39 -14.5t-16 -39.5q0 -20 23.5 -40t51.5 -36.5t51.5 -50t23.5 -77.5q0 -67 -60.5 -122.5t-170.5 -55.5q-78 0 -125.5 33.5t-47.5 85.5q0 28 17 53.5t54 25.5z" />
    <glyph glyph-name="t" unicode="t" horiz-adv-x="389" 
d="M347 654l-51 -174h110l-24 -80h-110l-58 -201q-14 -48 -14 -68q0 -31 31 -31q29 0 73 40l18 -46q-35 -47 -86 -77.5t-109 -30.5q-54 0 -82.5 29.5t-28.5 77.5q0 44 16 97l62 210h-85l12 37q8 24 24 34t32 11t36 18.5t33 54.5q18 50 29 62.5t46 17.5z" />
    <glyph glyph-name="u" unicode="u" 
d="M501 119l20 -43q-81 -90 -158 -90q-42 0 -67.5 23t-33.5 60q-30 -25 -49 -39t-53.5 -29t-66.5 -15q-47 0 -73 30t-26 81q0 33 28.5 134t28.5 116q0 21 -19 33.5t-19 20.5q0 7 8 35l7 25q107 5 241 33l-77 -290q-14 -51 -14 -63q0 -23 21 -23q25 0 65 29l41 153
q14 50 14 63q0 9 -13 18t-13 16q0 8 5 23l12 38q79 -2 222 36l-81 -302q-12 -44 -12 -66q0 -25 22 -25q14 0 40 18z" />
    <glyph glyph-name="v" unicode="v" horiz-adv-x="500" 
d="M293 480l-93 -315q-16 -55 -16 -66q0 -31 38 -31q45 0 87.5 47t68.5 110t32 120q-11 -3 -22 -3q-24 0 -38 16t-14 48q0 34 19.5 61t49.5 27q27 0 45 -29.5t18 -76.5q0 -80 -42 -188t-103 -157q-70 -57 -176 -57q-66 0 -106.5 25.5t-40.5 80.5q0 41 28 130t28 113
q0 20 -16.5 33t-16.5 28q0 10 6 24l8 23q117 0 256 37z" />
    <glyph glyph-name="w" unicode="w" horiz-adv-x="722" 
d="M368 472h181l-77 -285q-14 -50 -14 -68q0 -31 31 -31q41 0 89 72.5t67 190.5q-4 -1 -15 -1q-22 0 -36 15.5t-14 40.5q0 31 18.5 59.5t53.5 28.5q29 0 42.5 -17.5t13.5 -63.5q0 -45 -21.5 -122.5t-58.5 -147.5q-84 -157 -226 -157q-53 0 -79 29t-33 68q-87 -97 -182 -97
q-43 0 -76.5 26t-33.5 76q0 40 28 131.5t28 109.5q0 16 -9 26.5t-18 17t-9 13.5q0 13 5 30l6 23q118 1 253 41l-84 -307q-10 -42 -10 -57q0 -22 20 -22q33 0 72 54z" />
    <glyph glyph-name="x" unicode="x" horiz-adv-x="500" 
d="M124 154l38 49l-37 122q-1 3 -2.5 8.5t-2.5 8t-2.5 7t-2.5 6.5t-3 4.5t-4.5 3.5t-5.5 1q-17 0 -41 -20l-23 38q64 67 97 89q37 23 69 23q28 0 44.5 -18.5t28.5 -61.5l19 -68q5 7 20.5 28.5t22 30.5t20.5 26.5t22.5 25.5t20.5 18.5t23 14.5t21 4q25 0 39.5 -23.5
t14.5 -50.5q0 -36 -20.5 -70t-52.5 -34q-17 0 -27.5 11t-15 22t-8.5 11q-6 0 -20 -19l-41 -54l39 -135q7 -26 23 -26q13 0 49 28l21 -38q-94 -130 -160 -130q-34 0 -53 22t-35 77l-17 55l-60 -77q-58 -77 -107 -77q-28 0 -45.5 24t-17.5 66q0 46 22.5 76t50.5 30
q21 0 31 -15.5t15 -31t13 -15.5q14 0 40 34z" />
    <glyph glyph-name="y" unicode="y" horiz-adv-x="444" 
d="M233 365l26 -213h2l21 33t19 30.5l15 25.5t15.5 29t12.5 29t14 37q-26 2 -37 21t-11 39q0 36 21 67t55 31q26 0 40 -19.5t14 -53.5q0 -43 -45 -138t-129 -218q-96 -141 -165 -210t-119 -69q-32 0 -50 25t-18 67q0 39 22 66.5t54 27.5q48 0 48 -55q0 -23 15 -23
q22 0 59 55l-46 362q-6 39 -25 39q-13 0 -40 -20l-14 50q45 49 81 74.5t78 25.5q25 0 42.5 -10.5t26 -32t12 -35t6.5 -37.5z" />
    <glyph glyph-name="z" unicode="z" horiz-adv-x="500" 
d="M-31 32l296 300l-2 2q-48 -10 -64 -10q-17 0 -49 6.5t-48 6.5q-28 0 -56 -37l-32 26q24 75 71 121.5t117 46.5q25 0 93.5 -12t93.5 -12q33 0 54 3.5t28.5 7t8.5 3.5q4 0 4 -4q0 -3 -14 -19l-311 -317l2 -2q34 18 52 18q26 0 47.5 -16.5t37.5 -33t30 -16.5q16 0 16 13
q0 6 -11 21.5t-11 38.5q0 29 16.5 52t43.5 23q26 0 41 -21t15 -55q0 -62 -53 -121t-149 -59q-17 0 -89 12t-112 12q-32 0 -59 -5l-26 -5q-5 0 -5 5q0 3 24 27z" />
    <glyph glyph-name="braceleft" unicode="{" horiz-adv-x="444" 
d="M460 714l-3 -12q-44 -12 -68.5 -42.5t-39.5 -87.5l-47 -178q-16 -62 -39.5 -92.5t-75.5 -43.5l-1 -2q0 -2 28.5 -25.5t28.5 -44.5q0 -19 -11 -65l-46 -179q-9 -38 -9 -63q0 -51 50 -67l-4 -12q-113 0 -154.5 17t-41.5 70q0 21 10 61l47 188q9 34 9 59q0 43 -53 62
q48 14 70.5 41t36.5 80l50 188q25 92 77.5 120t185.5 28z" />
    <glyph glyph-name="bar" unicode="|" horiz-adv-x="222" 
d="M51 0v700h120v-700h-120z" />
    <glyph glyph-name="braceright" unicode="}" horiz-adv-x="444" 
d="M-60 -200l3 12q44 12 68.5 42.5t39.5 87.5l47 178q16 62 39.5 92.5t75.5 43.5l1 2q0 2 -28.5 25.5t-28.5 44.5q0 19 11 65l46 179q9 38 9 63q0 51 -50 67l4 12q113 0 154.5 -17t41.5 -70q0 -21 -10 -61l-47 -188q-9 -34 -9 -59q0 -43 53 -62q-48 -14 -70.5 -41t-36.5 -80
l-50 -188q-25 -92 -77.5 -120t-185.5 -28z" />
    <glyph glyph-name="asciitilde" unicode="~" horiz-adv-x="600" 
d="M495 333l36 -96q-20 -27 -33 -42t-38 -29.5t-54 -14.5q-42 0 -102 33q-62 35 -115 35q-51 0 -84 -72l-36 96q45 86 125 86q39 0 111 -32q7 -3 21.5 -9.5t23 -10t20 -8t20.5 -6.5t17 -2q19 0 36.5 12t27 24.5t24.5 35.5z" />
    <glyph glyph-name="uni00A0" unicode="&#xa0;" horiz-adv-x="278" 
 />
    <glyph glyph-name="exclamdown" unicode="&#xa1;" horiz-adv-x="333" 
d="M-40 -83l155 299h49l-12 -297q-6 -153 -139 -153q-40 0 -61.5 17.5t-21.5 48.5q0 27 30 85zM76 361q0 62 35.5 97.5t78.5 35.5q44 0 66 -28.5t22 -68.5q0 -62 -35.5 -97.5t-78.5 -35.5q-44 0 -66 28.5t-22 68.5z" />
    <glyph glyph-name="cent" unicode="&#xa2;" 
d="M426 700l-28 -90q52 -1 83 -33t31 -76q0 -46 -27 -78.5t-62 -32.5q-28 0 -44.5 14.5t-16.5 40.5q0 15 10 40.5t10 30.5q0 14 -19 14q-39 0 -79.5 -85t-40.5 -163q0 -39 14.5 -56.5t46.5 -17.5q65 0 123 70l25 -50q-65 -108 -210 -120l-34 -108h-57l34 110q-66 11 -103 61
t-37 113q0 119 89 215t206 111l28 90h58z" />
    <glyph glyph-name="sterling" unicode="&#xa3;" 
d="M201 71q-3 3 -11.5 10t-12 10t-11 9t-12 9t-11.5 7t-12.5 5.5t-12.5 3t-14 1.5q-16 0 -27 -9.5t-11 -23.5q0 -41 70 -41q31 0 65 19zM66 296l18 60h122q-20 33 -28 49t-17 46t-9 61q0 97 66.5 149.5t151.5 52.5q61 0 107.5 -31t46.5 -88q0 -45 -24.5 -70.5t-58.5 -25.5
q-33 0 -53 20.5t-20 47.5q0 25 14.5 45.5t14.5 23.5q0 12 -20 12q-29 0 -49 -21.5t-20 -56.5q0 -29 13 -55.5t38.5 -69.5t43.5 -89h119l-15 -60h-91q2 -18 2 -31q0 -119 -93 -200q16 -9 40 -9q26 0 50 19.5t64 68.5l40 -53q-69 -105 -161 -105q-57 0 -97 36
q-68 -36 -144 -36q-81 0 -127 34.5t-46 86.5q0 54 32.5 84.5t83.5 30.5q92 0 189 -106q31 28 31 78q0 62 -33 102h-181z" />
    <glyph glyph-name="currency" unicode="&#xa4;" 
d="M17 152l58 58q-46 52 -46 140q0 95 46 140l-58 58l63 63l57 -57q51 44 142 44q40 0 77 -12t57 -30l58 58l68 -68l-56 -56q42 -45 42 -140q0 -89 -44 -142l56 -56l-60 -60l-58 58q-48 -48 -140 -48q-93 0 -144 46l-57 -57zM279 490q-56 0 -95 -41t-39 -99t38.5 -99
t95.5 -41q55 0 92.5 41.5t37.5 98.5t-37.5 98.5t-92.5 41.5z" />
    <glyph glyph-name="yen" unicode="&#xa5;" 
d="M325 373l101 151q34 49 34 73q0 15 -15 25t-15 24q0 8 3.5 18.5t9 21.5t6.5 14h185l-8 -38q-4 -17 -13.5 -26t-21.5 -13t-32 -20.5t-39 -45.5l-90 -139h110l-18 -66h-136l-51 -78h169l-18 -66h-170l-15 -56q-9 -31 -9 -40q0 -14 19 -27t19 -23q0 -13 -5 -35l-7 -27h-280
l12 45q5 18 15.5 27.5t21 12t20.5 10.5t14 23l24 90h-145l18 66h147l3 17l-14 61h-122l18 66h89l-34 141q-7 30 -17.5 46t-18 18t-13.5 6t-6 12q0 16 7 42l4 17h295l-15 -55q-3 -11 -13.5 -17.5t-21 -8.5t-18.5 -10.5t-8 -23.5q0 -25 14 -84z" />
    <glyph glyph-name="brokenbar" unicode="&#xa6;" horiz-adv-x="222" 
d="M51 0v262h120v-262h-120zM51 438v262h120v-262h-120z" />
    <glyph glyph-name="section" unicode="&#xa7;" 
d="M199 420q-16 0 -27.5 -11.5t-11.5 -32.5q0 -42 75 -133q57 -69 90 -69q18 0 31 11.5t13 35.5q0 37 -68 123q-34 43 -56.5 59.5t-45.5 16.5zM7 -13q0 35 18 54t49 19t49 -17.5t18 -44.5q0 -18 -13 -36t-13 -25q0 -11 13 -18t33 -7q87 0 87 77q0 24 -20 55t-49 62.5
t-58 64.5t-49 71.5t-20 73.5q0 59 33 95t84 39q20 2 20 7q0 3 -16.5 34.5t-16.5 69.5q0 68 51 110.5t138 42.5q83 0 123 -30.5t40 -72.5q0 -31 -18.5 -49t-49.5 -18q-30 0 -46 18.5t-16 41.5q0 17 11 34.5t11 20.5q0 19 -45 19q-34 0 -55.5 -17t-21.5 -51q0 -10 1 -18
t5.5 -17.5t7 -15t11.5 -17t13.5 -17t18.5 -22t20 -23.5q71 -85 96.5 -126.5t25.5 -82.5q0 -55 -32 -89.5t-94 -37.5q-15 0 -15 -9q0 -1 8.5 -15.5t17 -39.5t8.5 -51q0 -70 -52 -111.5t-145 -41.5q-79 0 -122.5 34t-43.5 77z" />
    <glyph glyph-name="dieresis" unicode="&#xa8;" horiz-adv-x="333" 
d="M269 636q0 33 22 55.5t55 22.5t56 -23t23 -55t-23 -55t-56 -23t-55 22.5t-22 55.5zM56 636q0 32 22 55t55 23q32 0 55.5 -23t23.5 -55q0 -33 -23 -55.5t-56 -22.5q-34 0 -55.5 22.5t-21.5 55.5z" />
    <glyph glyph-name="copyright" unicode="&#xa9;" horiz-adv-x="800" 
d="M548 276h24l-15 -83q-2 -10 -53 -26.5t-85 -16.5q-106 0 -164.5 56t-58.5 156q0 36 11 69.5t35.5 65.5t72.5 51.5t113 19.5q41 0 84.5 -15t43.5 -27v-76h-24q-34 82 -101 82q-49 0 -69.5 -41.5t-21.5 -122.5q0 -43 2.5 -73t11.5 -56.5t27.5 -39.5t46.5 -13q78 0 120 90z
M400 714q153 0 253.5 -104.5t100.5 -260.5q0 -155 -100 -259t-254 -104t-254 104t-100 259q0 156 100.5 260.5t253.5 104.5zM400 638q-115 0 -184.5 -81t-69.5 -208q0 -126 69.5 -206.5t184.5 -80.5t184.5 80.5t69.5 206.5q0 127 -69.5 208t-184.5 81z" />
    <glyph glyph-name="ordfeminine" unicode="&#xaa;" horiz-adv-x="334" 
d="M373 714l-55 -194q-5 -15 -5 -26q0 -18 13 -18q8 0 23 10l11 8l10 -20q-10 -27 -41.5 -45.5t-63.5 -18.5q-54 0 -71 52q-47 -52 -94 -52q-35 0 -55.5 26.5t-20.5 63.5q0 92 61.5 153t131.5 61q24 0 46.5 -15t35.5 -15q9 0 74 30zM199 507l40 135q2 5 2 13q0 9 -13 9
q-34 0 -59 -60t-25 -93q0 -25 22 -25q7 0 19.5 9t13.5 12z" />
    <glyph glyph-name="guillemotleft" unicode="&#xab;" horiz-adv-x="500" 
d="M-24 240q0 5 14.5 16t54 37.5t72.5 50.5q21 15 50 39.5t45 36t23 11.5q15 0 15 -14q0 -20 -36.5 -63t-73 -80t-36.5 -42q0 -1 36.5 -70t36.5 -92q0 -21 -17 -21q-5 0 -15.5 10.5t-28.5 31t-30 32.5l-32.5 32.5t-26.5 26l-20 19t-15 15t-9 10.5t-5.5 8t-1.5 6zM176 240
q0 5 14.5 16t54 37.5t72.5 50.5q21 15 50 39.5t45 36t23 11.5q15 0 15 -14q0 -20 -36.5 -63t-73 -80t-36.5 -42q0 -1 36.5 -70t36.5 -92q0 -21 -17 -21q-5 0 -15.5 10.5t-28.5 31t-30 32.5l-32.5 32.5t-26.5 26l-20 19t-15 15t-9 10.5t-5.5 8t-1.5 6z" />
    <glyph glyph-name="logicalnot" unicode="&#xac;" horiz-adv-x="600" 
d="M420 73v214h-360v120h480v-334h-120z" />
    <glyph glyph-name="uni00AD" unicode="&#xad;" horiz-adv-x="333" 
d="M30 304h257l-34 -128h-257z" />
    <glyph glyph-name="registered" unicode="&#xae;" horiz-adv-x="800" 
d="M229 531v21h212q50 0 80.5 -26t30.5 -77q0 -33 -20.5 -61.5t-56.5 -39.5l58 -86q25 -37 58 -82v-16h-101q-13 0 -29.5 27.5t-37 74t-32.5 66.5h-19v-108q0 -22 6.5 -29.5t34.5 -8.5v-22h-184v22q30 1 36.5 8.5t6.5 29.5v269q0 22 -6.5 29.5t-36.5 8.5zM372 524v-164h22
q50 1 50 86q0 43 -11 60.5t-34 17.5h-27zM46 349q0 156 100.5 260.5t253.5 104.5t253.5 -104.5t100.5 -260.5q0 -155 -100 -259t-254 -104t-254 104t-100 259zM146 349q0 -126 69.5 -206.5t184.5 -80.5t184.5 80.5t69.5 206.5q0 127 -69.5 208t-184.5 81t-184.5 -81
t-69.5 -208z" />
    <glyph glyph-name="macron" unicode="&#xaf;" horiz-adv-x="333" 
d="M387 594h-327l23 82h327z" />
    <glyph glyph-name="degree" unicode="&#xb0;" horiz-adv-x="400" 
d="M239 650q-33 0 -54 -22.5t-21 -56.5t21 -56.5t54 -22.5t54 22.5t21 56.5t-21 56.5t-54 22.5zM239 428q-60 0 -101.5 41.5t-41.5 101.5t41.5 101.5t101.5 41.5t101.5 -41.5t41.5 -101.5t-41.5 -101.5t-101.5 -41.5z" />
    <glyph glyph-name="plusminus" unicode="&#xb1;" horiz-adv-x="600" 
d="M240 376v104h120v-104h180v-120h-180v-104h-120v104h-180v120h180zM60 0v120h480v-120h-480z" />
    <glyph glyph-name="twosuperior" unicode="&#xb2;" horiz-adv-x="333" 
d="M328 431l-43 -145h-289l21 72l67 50q71 53 113.5 107.5t42.5 96.5q0 50 -39 50q-29 0 -29 -17q0 -1 7 -11t7 -28q0 -21 -16.5 -41t-42.5 -20q-49 0 -49 54q0 42 44 78.5t114 36.5q52 0 90 -29t38 -75q0 -103 -144 -170l-109 -51v-1h107q26 0 41 6.5t19 15t14 15t27 6.5h9
z" />
    <glyph glyph-name="threesuperior" unicode="&#xb3;" horiz-adv-x="333" 
d="M143 483l10 42q48 1 76.5 28t28.5 70q0 23 -14 34t-34 11q-28 0 -28 -12q0 -2 7 -13.5t7 -24.5q0 -24 -16.5 -39.5t-43.5 -15.5q-25 0 -36.5 14t-11.5 34q0 40 38.5 71.5t113.5 31.5q53 0 93.5 -24.5t40.5 -66.5q0 -47 -40.5 -74t-92.5 -33v-2q52 -4 74 -25.5t22 -59.5
q0 -60 -56.5 -105.5t-143.5 -45.5q-52 0 -88.5 28t-36.5 67q0 33 19.5 54t46.5 21q23 0 36.5 -13.5t13.5 -32.5q0 -15 -5 -25t-11.5 -14t-11.5 -8.5t-5 -9.5q0 -15 25 -15q41 0 67 32t26 66q0 18 -4.5 29t-15 16t-20.5 7t-30 3z" />
    <glyph glyph-name="acute" unicode="&#xb4;" horiz-adv-x="333" 
d="M214 552h-67l119 145q35 37 56 44q9 3 19 3q26 0 44 -18t18 -43q0 -29 -38 -49z" />
    <glyph glyph-name="mu" unicode="&#xb5;" 
d="M532 494l-81 -302q-12 -44 -12 -66q0 -25 22 -25q14 0 40 18l20 -43q-81 -90 -158 -90q-42 0 -67.5 23t-33.5 60q-75 -62 -122 -75l-51 -194h-177l92 348q47 177 47 199q0 21 -19 33.5t-19 20.5q0 7 8 35l7 25q107 5 241 33l-77 -290q-14 -51 -14 -63q0 -23 21 -23
q25 0 65 29l41 153q14 50 14 63q0 9 -13 18t-13 16q0 8 5 23l12 38q79 -2 222 36z" />
    <glyph glyph-name="paragraph" unicode="&#xb6;" horiz-adv-x="620" 
d="M83 -122l120 411q-51 0 -79 32t-28 88q0 40 8 79t28 78t49.5 68.5t75.5 47.5t103 18h317l-8 -27q-49 -6 -63 -15t-23 -40l-217 -740h-120l232 792h-51l-232 -792h-112z" />
    <glyph glyph-name="periodcentered" unicode="&#xb7;" horiz-adv-x="278" 
d="M119 344q43 0 74 -30.5t31 -73.5q0 -42 -29.5 -74t-75.5 -32q-43 0 -74 31t-31 75q0 43 31 73.5t74 30.5z" />
    <glyph glyph-name="cedilla" unicode="&#xb8;" horiz-adv-x="333" 
d="M-82 -95l72 95h48l-52 -66q20 4 34 4q44 0 71 -21t27 -55q0 -38 -37 -64t-110 -26q-53 0 -111 28l22 35q43 -19 74 -19q26 0 40 12t14 29q0 16 -11 26.5t-28 10.5q-13 0 -35 -8z" />
    <glyph glyph-name="onesuperior" unicode="&#xb9;" horiz-adv-x="333" 
d="M185 618h-65l11 38l137 58h69l-96 -328q-4 -15 -4 -26q0 -16 14.5 -24.5t14.5 -18.5q0 -7 -3 -14l-6 -17h-211l5 23q4 17 30 28.5t31 29.5z" />
    <glyph glyph-name="ordmasculine" unicode="&#xba;" horiz-adv-x="334" 
d="M38 521q0 88 60.5 140.5t143.5 52.5q62 0 97 -30.5t35 -80.5q0 -88 -60.5 -140.5t-143.5 -52.5q-62 0 -97 30.5t-35 80.5zM258 644q0 24 -22 24q-34 0 -58 -72.5t-24 -115.5q0 -24 21 -24q34 0 58.5 72.5t24.5 115.5z" />
    <glyph glyph-name="guillemotright" unicode="&#xbb;" horiz-adv-x="500" 
d="M264 240q0 -5 -14.5 -16t-54 -37.5t-72.5 -50.5q-21 -15 -50 -39.5t-45 -36t-23 -11.5q-15 0 -15 14q0 20 36.5 63t73 80t36.5 42q0 1 -36.5 70t-36.5 92q0 21 17 21q5 0 15.5 -10.5t28.5 -31t30 -32.5l32.5 -32.5t26.5 -26l20 -19t15 -15t9 -10.5t5.5 -8t1.5 -6z
M464 240q0 -5 -14.5 -16t-54 -37.5t-72.5 -50.5q-21 -15 -50 -39.5t-45 -36t-23 -11.5q-15 0 -15 14q0 20 36.5 63t73 80t36.5 42q0 1 -36.5 70t-36.5 92q0 21 17 21q5 0 15.5 -10.5t28.5 -31t30 -32.5l32.5 -32.5t26.5 -26l20 -19t15 -15t9 -10.5t5.5 -8t1.5 -6z" />
    <glyph glyph-name="onequarter" unicode="&#xbc;" horiz-adv-x="834" 
d="M165 618h-65l11 38l137 58h69l-96 -328q-4 -15 -4 -26q0 -16 14.5 -24.5t14.5 -18.5q0 -7 -3 -14l-6 -17h-211l5 23q4 17 30 28.5t31 29.5zM670 714l-395 -728h-106l396 728h105zM616 170l48 159l-1 2l-150 -161h103zM781 170l-16 -61h-53q-10 -35 -10 -45
q0 -9 11.5 -14.5t11.5 -14.5q0 -6 -3 -15l-5 -20h-193l6 23q4 13 13.5 20t19 9t18 9t10.5 20l8 27h-157l17 66l239 254h104l-74 -258h53z" />
    <glyph glyph-name="onehalf" unicode="&#xbd;" horiz-adv-x="834" 
d="M658 714l-395 -728h-106l396 728h105zM161 618h-65l11 38l137 58h69l-96 -328q-4 -15 -4 -26q0 -16 14.5 -24.5t14.5 -18.5q0 -7 -3 -14l-6 -17h-211l5 23q4 17 30 28.5t31 29.5zM764 145l-43 -145h-289l21 72l67 50q71 53 113.5 107.5t42.5 96.5q0 50 -39 50
q-29 0 -29 -17q0 -1 7 -11t7 -28q0 -21 -16.5 -41t-42.5 -20q-49 0 -49 54q0 42 44 78.5t114 36.5q52 0 90 -29t38 -75q0 -103 -144 -170l-109 -51v-1h107q26 0 41 6.5t19 15t14 15t27 6.5h9z" />
    <glyph glyph-name="threequarters" unicode="&#xbe;" horiz-adv-x="834" 
d="M632 170l48 159l-1 2l-150 -161h103zM797 170l-16 -61h-53q-10 -35 -10 -45q0 -9 11.5 -14.5t11.5 -14.5q0 -6 -3 -15l-5 -20h-193l6 23q4 13 13.5 20t19 9t18 9t10.5 20l8 27h-157l17 66l239 254h104l-74 -258h53zM690 714l-395 -728h-106l396 728h105zM143 483l10 42
q48 1 76.5 28t28.5 70q0 23 -14 34t-34 11q-28 0 -28 -12q0 -2 7 -13.5t7 -24.5q0 -24 -16.5 -39.5t-43.5 -15.5q-25 0 -36.5 14t-11.5 34q0 40 38.5 71.5t113.5 31.5q53 0 93.5 -24.5t40.5 -66.5q0 -47 -40.5 -74t-92.5 -33v-2q52 -4 74 -25.5t22 -59.5q0 -60 -56.5 -105.5
t-143.5 -45.5q-52 0 -88.5 28t-36.5 67q0 33 19.5 54t46.5 21q23 0 36.5 -13.5t13.5 -32.5q0 -15 -5 -25t-11.5 -14t-11.5 -8.5t-5 -9.5q0 -15 25 -15q41 0 67 32t26 66q0 18 -4.5 29t-15 16t-20.5 7t-30 3z" />
    <glyph glyph-name="questiondown" unicode="&#xbf;" horiz-adv-x="500" 
d="M240 231h58q-3 -41 -29.5 -83.5t-56 -73.5t-54 -75.5t-24.5 -89.5q0 -67 56 -67q14 0 24.5 5.5t10.5 14.5q0 4 -7.5 22t-7.5 36q0 40 31 73t72 33q33 0 54 -23t21 -61q0 -78 -76 -127t-177 -49q-87 0 -145 39t-58 104q0 49 29.5 88t72.5 65t87 49.5t78 54t41 65.5z
M210 368q0 59 35.5 92.5t78.5 33.5q44 0 66 -27t22 -64q0 -59 -35.5 -92.5t-78.5 -33.5q-44 0 -66 27t-22 64z" />
    <glyph glyph-name="Agrave" unicode="&#xc0;" horiz-adv-x="611" 
d="M169 254h134l-18 208h-2zM311 168h-187q-24 -41 -24 -60t21 -29.5t21 -24.5q0 -4 -14 -54h-206l8 33q6 26 16 36.5t19.5 10.5t25 11.5t30.5 38.5l256 456l-3 26q-1 9 -1 24q0 11 5 16.5t19 11.5l87 35q37 15 44 15q10 0 13 -21l60 -552q3 -25 12 -39.5t18 -18t16 -10
t7 -17.5q0 -1 -8 -36l-5 -20h-291l8 43q4 22 31.5 34t27.5 31q0 16 -6 60zM506 732h-63l-125 80q-42 28 -42 55q0 29 19 43t42 14q35 0 76 -58z" />
    <glyph glyph-name="Aacute" unicode="&#xc1;" horiz-adv-x="611" 
d="M169 254h134l-18 208h-2zM311 168h-187q-24 -41 -24 -60t21 -29.5t21 -24.5q0 -4 -14 -54h-206l8 33q6 26 16 36.5t19.5 10.5t25 11.5t30.5 38.5l256 456l-3 26q-1 9 -1 24q0 11 5 16.5t19 11.5l87 35q37 15 44 15q10 0 13 -21l60 -552q3 -25 12 -39.5t18 -18t16 -10
t7 -17.5q0 -1 -8 -36l-5 -20h-291l8 43q4 22 31.5 34t27.5 31q0 16 -6 60zM394 732h-67l119 145q35 37 56 44q9 3 19 3q26 0 44 -18t18 -43q0 -29 -38 -49z" />
    <glyph glyph-name="Acircumflex" unicode="&#xc2;" horiz-adv-x="611" 
d="M169 254h134l-18 208h-2zM311 168h-187q-24 -41 -24 -60t21 -29.5t21 -24.5q0 -4 -14 -54h-206l8 33q6 26 16 36.5t19.5 10.5t25 11.5t30.5 38.5l256 456l-3 26q-1 9 -1 24q0 11 5 16.5t19 11.5l87 35q37 15 44 15q10 0 13 -21l60 -552q3 -25 12 -39.5t18 -18t16 -10
t7 -17.5q0 -1 -8 -36l-5 -20h-291l8 43q4 22 31.5 34t27.5 31q0 16 -6 60zM580 732h-63l-94 88l-119 -88h-74l151 178h120z" />
    <glyph glyph-name="Atilde" unicode="&#xc3;" horiz-adv-x="611" 
d="M169 254h134l-18 208h-2zM311 168h-187q-24 -41 -24 -60t21 -29.5t21 -24.5q0 -4 -14 -54h-206l8 33q6 26 16 36.5t19.5 10.5t25 11.5t30.5 38.5l256 456l-3 26q-1 9 -1 24q0 11 5 16.5t19 11.5l87 35q37 15 44 15q10 0 13 -21l60 -552q3 -25 12 -39.5t18 -18t16 -10
t7 -17.5q0 -1 -8 -36l-5 -20h-291l8 43q4 22 31.5 34t27.5 31q0 16 -6 60zM281 752h-48q3 24 14 51.5t41 54t72 26.5q26 0 72.5 -20t65.5 -20q37 0 51 40h50q-11 -53 -42.5 -92.5t-84.5 -39.5q-27 0 -79.5 21t-65.5 21q-34 0 -46 -42z" />
    <glyph glyph-name="Adieresis" unicode="&#xc4;" horiz-adv-x="611" 
d="M169 254h134l-18 208h-2zM311 168h-187q-24 -41 -24 -60t21 -29.5t21 -24.5q0 -4 -14 -54h-206l8 33q6 26 16 36.5t19.5 10.5t25 11.5t30.5 38.5l256 456l-3 26q-1 9 -1 24q0 11 5 16.5t19 11.5l87 35q37 15 44 15q10 0 13 -21l60 -552q3 -25 12 -39.5t18 -18t16 -10
t7 -17.5q0 -1 -8 -36l-5 -20h-291l8 43q4 22 31.5 34t27.5 31q0 16 -6 60zM449 816q0 33 22 55.5t55 22.5t56 -23t23 -55t-23 -55t-56 -23t-55 22.5t-22 55.5zM236 816q0 32 22 55t55 23q32 0 55.5 -23t23.5 -55q0 -33 -23 -55.5t-56 -22.5q-34 0 -55.5 22.5t-21.5 55.5z
" />
    <glyph glyph-name="Aring" unicode="&#xc5;" horiz-adv-x="611" 
d="M169 254h134l-18 208h-2zM311 168h-187q-24 -41 -24 -60t21 -29.5t21 -24.5q0 -4 -14 -54h-206l8 33q6 26 16 36.5t19.5 10.5t25 11.5t30.5 38.5l256 456l-3 26q-1 9 -1 24q0 11 5 16.5t19 11.5l87 35q37 15 44 15q10 0 13 -21l60 -552q3 -25 12 -39.5t18 -18t16 -10
t7 -17.5q0 -1 -8 -36l-5 -20h-291l8 43q4 22 31.5 34t27.5 31q0 16 -6 60zM347 830q0 47 33 79.5t79 32.5t79 -33t33 -79t-33 -79t-79 -33t-79 32.5t-33 79.5zM407 830q0 -18 13.5 -35t37.5 -17q22 0 37.5 15t15.5 37q0 21 -15.5 36.5t-37.5 15.5q-24 0 -37.5 -17.5
t-13.5 -34.5z" />
    <glyph glyph-name="AE" unicode="&#xc6;" horiz-adv-x="889" 
d="M282 404h140l29 109q17 62 17 82q0 19 -17 19q-22 0 -60 -55zM399 318h-173l-113 -165q-20 -31 -20 -44t19.5 -24t19.5 -31q0 -4 -15 -54h-209l13 40q8 24 21 33t34.5 23t42.5 45l255 366q41 59 41 80q0 14 -8 22t-17 10.5t-17 10t-8 20.5q0 11 16 50h506q95 0 130 14
l-59 -216h-19q-13 0 -20 6.5t-9 14t-5 26t-6 31.5q-6 22 -25 30t-61 8h-49l-55 -210h16q44 0 62 33q22 39 40 39h35l-66 -244h-20q-6 0 -10 2t-6.5 4.5t-4.5 8.5t-3 10t-2.5 14t-2.5 16q-4 18 -12.5 24.5t-27.5 6.5h-20l-62 -232h73q76 0 116 66q7 11 15.5 26t12 20.5t9 13
t10 9.5t11 4t15.5 2h21l-60 -227h-493l12 54q3 13 14 20t24 10t26 15t19 34z" />
    <glyph glyph-name="Ccedilla" unicode="&#xc7;" 
d="M451 247l47 -42q-21 -93 -91 -156t-160 -63q-12 0 -19 2l-42 -54q20 4 34 4q44 0 71 -21t27 -55q0 -38 -37 -64t-110 -26q-53 0 -111 28l22 35q43 -19 74 -19q26 0 40 12t14 29q0 16 -11 26.5t-28 10.5q-13 0 -35 -8l-18 19l68 90q-71 19 -115.5 83.5t-44.5 172.5
q0 96 33 183.5t85.5 148t116.5 96t126 35.5q36 0 62.5 -11t42.5 -22.5t26 -11.5q16 0 21 17h62l-60 -230h-20q-9 0 -15.5 2.5t-11 7.5t-7 10.5t-4.5 15t-2.5 15.5t-1.5 18.5t-2 18.5q-10 84 -63 84q-50 0 -96.5 -84t-71 -183.5t-24.5 -165.5q0 -115 75 -115q41 0 85.5 42.5
t68.5 124.5z" />
    <glyph glyph-name="Egrave" unicode="&#xc8;" 
d="M30 120l111 419q10 36 10 52q0 17 -18 31.5t-18 29.5q0 10 5 25l8 23h342q95 0 130 14l-59 -216h-19q-13 0 -20 6.5t-9 14t-5 26t-6 31.5q-6 22 -25 30t-61 8h-49l-54 -206h16q44 0 62 33q22 39 40 39h35l-66 -244h-20q-6 0 -10 2t-6.5 4.5t-4.5 8.5t-3 10t-2.5 14
t-2.5 16q-4 18 -12.5 24.5t-27.5 6.5h-20l-63 -236h73q76 0 116 66q7 11 15.5 26t12 20.5t9 13t10 9.5t11 4t15.5 2h21l-60 -227h-486l13 53q3 13 34 26.5t38 40.5zM484 732h-63l-125 80q-42 28 -42 55q0 29 19 43t42 14q35 0 76 -58z" />
    <glyph glyph-name="Eacute" unicode="&#xc9;" 
d="M30 120l111 419q10 36 10 52q0 17 -18 31.5t-18 29.5q0 10 5 25l8 23h342q95 0 130 14l-59 -216h-19q-13 0 -20 6.5t-9 14t-5 26t-6 31.5q-6 22 -25 30t-61 8h-49l-54 -206h16q44 0 62 33q22 39 40 39h35l-66 -244h-20q-6 0 -10 2t-6.5 4.5t-4.5 8.5t-3 10t-2.5 14
t-2.5 16q-4 18 -12.5 24.5t-27.5 6.5h-20l-63 -236h73q76 0 116 66q7 11 15.5 26t12 20.5t9 13t10 9.5t11 4t15.5 2h21l-60 -227h-486l13 53q3 13 34 26.5t38 40.5zM372 732h-67l119 145q35 37 56 44q9 3 19 3q26 0 44 -18t18 -43q0 -29 -38 -49z" />
    <glyph glyph-name="Ecircumflex" unicode="&#xca;" 
d="M30 120l111 419q10 36 10 52q0 17 -18 31.5t-18 29.5q0 10 5 25l8 23h342q95 0 130 14l-59 -216h-19q-13 0 -20 6.5t-9 14t-5 26t-6 31.5q-6 22 -25 30t-61 8h-49l-54 -206h16q44 0 62 33q22 39 40 39h35l-66 -244h-20q-6 0 -10 2t-6.5 4.5t-4.5 8.5t-3 10t-2.5 14
t-2.5 16q-4 18 -12.5 24.5t-27.5 6.5h-20l-63 -236h73q76 0 116 66q7 11 15.5 26t12 20.5t9 13t10 9.5t11 4t15.5 2h21l-60 -227h-486l13 53q3 13 34 26.5t38 40.5zM558 732h-63l-94 88l-119 -88h-74l151 178h120z" />
    <glyph glyph-name="Edieresis" unicode="&#xcb;" 
d="M30 120l111 419q10 36 10 52q0 17 -18 31.5t-18 29.5q0 10 5 25l8 23h342q95 0 130 14l-59 -216h-19q-13 0 -20 6.5t-9 14t-5 26t-6 31.5q-6 22 -25 30t-61 8h-49l-54 -206h16q44 0 62 33q22 39 40 39h35l-66 -244h-20q-6 0 -10 2t-6.5 4.5t-4.5 8.5t-3 10t-2.5 14
t-2.5 16q-4 18 -12.5 24.5t-27.5 6.5h-20l-63 -236h73q76 0 116 66q7 11 15.5 26t12 20.5t9 13t10 9.5t11 4t15.5 2h21l-60 -227h-486l13 53q3 13 34 26.5t38 40.5zM427 816q0 33 22 55.5t55 22.5t56 -23t23 -55t-23 -55t-56 -23t-55 22.5t-22 55.5zM214 816q0 32 22 55
t55 23q32 0 55.5 -23t23.5 -55q0 -33 -23 -55.5t-56 -22.5q-34 0 -55.5 22.5t-21.5 55.5z" />
    <glyph glyph-name="Igrave" unicode="&#xcc;" horiz-adv-x="389" 
d="M39 120l111 419q10 36 10 52q0 17 -18 31.5t-18 29.5q0 10 5 25l8 23h297l-15 -52q-3 -12 -12.5 -18.5t-19 -9.5t-19.5 -14t-15 -31l-112 -423q-7 -28 -7 -46q0 -14 16.5 -28t16.5 -28q0 -17 -14 -50h-299l13 53q3 13 34 26.5t38 40.5zM395 732h-63l-125 80
q-42 28 -42 55q0 29 19 43t42 14q35 0 76 -58z" />
    <glyph glyph-name="Iacute" unicode="&#xcd;" horiz-adv-x="389" 
d="M39 120l111 419q10 36 10 52q0 17 -18 31.5t-18 29.5q0 10 5 25l8 23h297l-15 -52q-3 -12 -12.5 -18.5t-19 -9.5t-19.5 -14t-15 -31l-112 -423q-7 -28 -7 -46q0 -14 16.5 -28t16.5 -28q0 -17 -14 -50h-299l13 53q3 13 34 26.5t38 40.5zM283 732h-67l119 145q35 37 56 44
q9 3 19 3q26 0 44 -18t18 -43q0 -29 -38 -49z" />
    <glyph glyph-name="Icircumflex" unicode="&#xce;" horiz-adv-x="389" 
d="M39 120l111 419q10 36 10 52q0 17 -18 31.5t-18 29.5q0 10 5 25l8 23h297l-15 -52q-3 -12 -12.5 -18.5t-19 -9.5t-19.5 -14t-15 -31l-112 -423q-7 -28 -7 -46q0 -14 16.5 -28t16.5 -28q0 -17 -14 -50h-299l13 53q3 13 34 26.5t38 40.5zM469 732h-63l-94 88l-119 -88h-74
l151 178h120z" />
    <glyph glyph-name="Idieresis" unicode="&#xcf;" horiz-adv-x="389" 
d="M39 120l111 419q10 36 10 52q0 17 -18 31.5t-18 29.5q0 10 5 25l8 23h297l-15 -52q-3 -12 -12.5 -18.5t-19 -9.5t-19.5 -14t-15 -31l-112 -423q-7 -28 -7 -46q0 -14 16.5 -28t16.5 -28q0 -17 -14 -50h-299l13 53q3 13 34 26.5t38 40.5zM338 816q0 33 22 55.5t55 22.5
t56 -23t23 -55t-23 -55t-56 -23t-55 22.5t-22 55.5zM125 816q0 32 22 55t55 23q32 0 55.5 -23t23.5 -55q0 -33 -23 -55.5t-56 -22.5q-34 0 -55.5 22.5t-21.5 55.5z" />
    <glyph glyph-name="Eth" unicode="&#xd0;" horiz-adv-x="667" 
d="M388 428l-25 -92h-81l-69 -250h26q52 0 85 38q30 34 75 189.5t45 224.5q0 42 -15 59t-48 17h-23l-51 -186h81zM26 336l25 92h66l29 111q10 36 10 52q0 17 -18 31.5t-18 29.5q0 10 5 25l8 23h275q100 0 163 -60t63 -172q0 -106 -40 -211q-52 -137 -133.5 -197t-226.5 -60
h-284l13 53q3 13 34 26.5t38 40.5l58 216h-67z" />
    <glyph glyph-name="Ntilde" unicode="&#xd1;" horiz-adv-x="611" 
d="M124 0h-186l8 38q5 24 36.5 40.5t36.5 36.5l123 449q4 16 4 23q0 15 -19.5 30.5t-19.5 34.5q0 6 12 48h241l85 -478h2l89 320q8 24 8 46q0 20 -18.5 33.5t-18.5 26.5q0 11 5 28l7 24h187l-12 -50q-3 -13 -14.5 -21.5t-24.5 -12.5t-26.5 -18.5t-19.5 -37.5l-154 -560h-155
l-96 536h-2l-102 -386q-7 -30 -7 -39q0 -19 20.5 -33.5t20.5 -29.5q0 -12 -4 -25zM298 752h-48q3 24 14 51.5t41 54t72 26.5q26 0 72.5 -20t65.5 -20q37 0 51 40h50q-11 -53 -42.5 -92.5t-84.5 -39.5q-27 0 -79.5 21t-65.5 21q-34 0 -46 -42z" />
    <glyph glyph-name="Ograve" unicode="&#xd2;" horiz-adv-x="611" 
d="M248 -14q-105 0 -167.5 77.5t-62.5 198.5q0 94 30.5 179.5t79 144.5t111.5 93.5t127 34.5q75 0 127.5 -39.5t75.5 -96.5t23 -123q0 -74 -22.5 -154t-63.5 -151.5t-109 -117.5t-149 -46zM242 62q41 0 66 62q30 74 65 235.5t35 226.5q0 52 -40 52q-41 0 -66 -62
q-30 -74 -65 -235.5t-35 -226.5q0 -52 40 -52zM506 732h-63l-125 80q-42 28 -42 55q0 29 19 43t42 14q35 0 76 -58z" />
    <glyph glyph-name="Oacute" unicode="&#xd3;" horiz-adv-x="611" 
d="M248 -14q-105 0 -167.5 77.5t-62.5 198.5q0 94 30.5 179.5t79 144.5t111.5 93.5t127 34.5q75 0 127.5 -39.5t75.5 -96.5t23 -123q0 -74 -22.5 -154t-63.5 -151.5t-109 -117.5t-149 -46zM242 62q41 0 66 62q30 74 65 235.5t35 226.5q0 52 -40 52q-41 0 -66 -62
q-30 -74 -65 -235.5t-35 -226.5q0 -52 40 -52zM394 732h-67l119 145q35 37 56 44q9 3 19 3q26 0 44 -18t18 -43q0 -29 -38 -49z" />
    <glyph glyph-name="Ocircumflex" unicode="&#xd4;" horiz-adv-x="611" 
d="M248 -14q-105 0 -167.5 77.5t-62.5 198.5q0 94 30.5 179.5t79 144.5t111.5 93.5t127 34.5q75 0 127.5 -39.5t75.5 -96.5t23 -123q0 -74 -22.5 -154t-63.5 -151.5t-109 -117.5t-149 -46zM242 62q41 0 66 62q30 74 65 235.5t35 226.5q0 52 -40 52q-41 0 -66 -62
q-30 -74 -65 -235.5t-35 -226.5q0 -52 40 -52zM580 732h-63l-94 88l-119 -88h-74l151 178h120z" />
    <glyph glyph-name="Otilde" unicode="&#xd5;" horiz-adv-x="611" 
d="M248 -14q-105 0 -167.5 77.5t-62.5 198.5q0 94 30.5 179.5t79 144.5t111.5 93.5t127 34.5q75 0 127.5 -39.5t75.5 -96.5t23 -123q0 -74 -22.5 -154t-63.5 -151.5t-109 -117.5t-149 -46zM242 62q41 0 66 62q30 74 65 235.5t35 226.5q0 52 -40 52q-41 0 -66 -62
q-30 -74 -65 -235.5t-35 -226.5q0 -52 40 -52zM281 752h-48q3 24 14 51.5t41 54t72 26.5q26 0 72.5 -20t65.5 -20q37 0 51 40h50q-11 -53 -42.5 -92.5t-84.5 -39.5q-27 0 -79.5 21t-65.5 21q-34 0 -46 -42z" />
    <glyph glyph-name="Odieresis" unicode="&#xd6;" horiz-adv-x="611" 
d="M248 -14q-105 0 -167.5 77.5t-62.5 198.5q0 94 30.5 179.5t79 144.5t111.5 93.5t127 34.5q75 0 127.5 -39.5t75.5 -96.5t23 -123q0 -74 -22.5 -154t-63.5 -151.5t-109 -117.5t-149 -46zM242 62q41 0 66 62q30 74 65 235.5t35 226.5q0 52 -40 52q-41 0 -66 -62
q-30 -74 -65 -235.5t-35 -226.5q0 -52 40 -52zM449 816q0 33 22 55.5t55 22.5t56 -23t23 -55t-23 -55t-56 -23t-55 22.5t-22 55.5zM236 816q0 32 22 55t55 23q32 0 55.5 -23t23.5 -55q0 -33 -23 -55.5t-56 -22.5q-34 0 -55.5 22.5t-21.5 55.5z" />
    <glyph glyph-name="multiply" unicode="&#xd7;" horiz-adv-x="600" 
d="M216 240l-156 155l85 85l155 -155l155 155l85 -85l-155 -155l155 -156l-85 -84l-155 155l-155 -155l-85 84z" />
    <glyph glyph-name="Oslash" unicode="&#xd8;" horiz-adv-x="611" 
d="M242 62q41 0 66 62q41 99 80 309l-2 2q-122 -192 -181 -289q-3 -14 -3 -28q0 -56 40 -56zM368 638q-41 0 -66 -62q-36 -87 -74 -281l2 -2q171 276 178 288v1q0 56 -40 56zM66 -78h-80l94 142q-62 78 -62 198q0 94 30.5 179.5t79 144.5t111.5 93.5t127 34.5q60 0 106 -26
l55 83h78l-79 -125q66 -75 66 -191q0 -74 -22.5 -154t-63.5 -151.5t-109 -117.5t-149 -46q-68 0 -120 35z" />
    <glyph glyph-name="Ugrave" unicode="&#xd9;" horiz-adv-x="611" 
d="M449 271l76 271q7 25 7 43q0 21 -9 30t-18 14t-9 17q0 4 4 24l8 30h190l-12 -43q-4 -16 -16 -25.5t-25 -14.5t-28.5 -24.5t-24.5 -52.5l-92 -336q-34 -123 -101 -170.5t-181 -47.5q-88 0 -143 44t-55 119q0 39 22 120l74 266q12 38 12 51q0 23 -17.5 32t-17.5 25
q0 12 4 24l11 33h299l-11 -46q-4 -16 -13.5 -25t-18.5 -12t-19.5 -14.5t-15.5 -31.5l-100 -359q-11 -40 -11 -62q0 -78 73 -78q30 0 53 11t37.5 25.5t28 45.5t20.5 52.5t19 64.5zM523 732h-63l-125 80q-42 28 -42 55q0 29 19 43t42 14q35 0 76 -58z" />
    <glyph glyph-name="Uacute" unicode="&#xda;" horiz-adv-x="611" 
d="M449 271l76 271q7 25 7 43q0 21 -9 30t-18 14t-9 17q0 4 4 24l8 30h190l-12 -43q-4 -16 -16 -25.5t-25 -14.5t-28.5 -24.5t-24.5 -52.5l-92 -336q-34 -123 -101 -170.5t-181 -47.5q-88 0 -143 44t-55 119q0 39 22 120l74 266q12 38 12 51q0 23 -17.5 32t-17.5 25
q0 12 4 24l11 33h299l-11 -46q-4 -16 -13.5 -25t-18.5 -12t-19.5 -14.5t-15.5 -31.5l-100 -359q-11 -40 -11 -62q0 -78 73 -78q30 0 53 11t37.5 25.5t28 45.5t20.5 52.5t19 64.5zM411 732h-67l119 145q35 37 56 44q9 3 19 3q26 0 44 -18t18 -43q0 -29 -38 -49z" />
    <glyph glyph-name="Ucircumflex" unicode="&#xdb;" horiz-adv-x="611" 
d="M449 271l76 271q7 25 7 43q0 21 -9 30t-18 14t-9 17q0 4 4 24l8 30h190l-12 -43q-4 -16 -16 -25.5t-25 -14.5t-28.5 -24.5t-24.5 -52.5l-92 -336q-34 -123 -101 -170.5t-181 -47.5q-88 0 -143 44t-55 119q0 39 22 120l74 266q12 38 12 51q0 23 -17.5 32t-17.5 25
q0 12 4 24l11 33h299l-11 -46q-4 -16 -13.5 -25t-18.5 -12t-19.5 -14.5t-15.5 -31.5l-100 -359q-11 -40 -11 -62q0 -78 73 -78q30 0 53 11t37.5 25.5t28 45.5t20.5 52.5t19 64.5zM597 732h-63l-94 88l-119 -88h-74l151 178h120z" />
    <glyph glyph-name="Udieresis" unicode="&#xdc;" horiz-adv-x="611" 
d="M449 271l76 271q7 25 7 43q0 21 -9 30t-18 14t-9 17q0 4 4 24l8 30h190l-12 -43q-4 -16 -16 -25.5t-25 -14.5t-28.5 -24.5t-24.5 -52.5l-92 -336q-34 -123 -101 -170.5t-181 -47.5q-88 0 -143 44t-55 119q0 39 22 120l74 266q12 38 12 51q0 23 -17.5 32t-17.5 25
q0 12 4 24l11 33h299l-11 -46q-4 -16 -13.5 -25t-18.5 -12t-19.5 -14.5t-15.5 -31.5l-100 -359q-11 -40 -11 -62q0 -78 73 -78q30 0 53 11t37.5 25.5t28 45.5t20.5 52.5t19 64.5zM466 816q0 33 22 55.5t55 22.5t56 -23t23 -55t-23 -55t-56 -23t-55 22.5t-22 55.5zM253 816
q0 32 22 55t55 23q32 0 55.5 -23t23.5 -55q0 -33 -23 -55.5t-56 -22.5q-34 0 -55.5 22.5t-21.5 55.5z" />
    <glyph glyph-name="Yacute" unicode="&#xdd;" 
d="M121 118l47 174l-63 267q-7 30 -17.5 46t-18 18t-13.5 6t-6 12q0 16 7 42l4 17h307l-15 -55q-3 -11 -13.5 -17.5t-21 -8.5t-18.5 -10.5t-8 -23.5q0 -12 10 -54l35 -158l101 151q34 49 34 73q0 15 -15 25t-15 24q0 8 3.5 18.5t9 21.5t6.5 14h193l-8 -38q-4 -17 -13.5 -26
t-21.5 -13t-32 -20.5t-39 -45.5l-189 -290l-30 -115q-9 -31 -9 -40q0 -14 19 -27t19 -23q0 -13 -5 -35l-7 -27h-300l12 45q5 18 15.5 27.5t21 12t20.5 10.5t14 23zM343 732h-67l119 145q35 37 56 44q9 3 19 3q26 0 44 -18t18 -43q0 -29 -38 -49z" />
    <glyph glyph-name="Thorn" unicode="&#xde;" 
d="M235 0h-293l13 53q3 13 34 26.5t38 40.5l111 419q10 36 10 52q0 17 -18 31.5t-18 29.5q0 10 5 25l8 23h289l-15 -52q-3 -12 -12.5 -18.5t-19.5 -9.5t-20 -14t-14 -31l-2 -9q32 2 69 2q68 0 105 -40t37 -115q0 -109 -66.5 -175.5t-173.5 -66.5q-12 0 -38 1t-38 1l-6 -23
q-6 -23 -6 -44q0 -16 16.5 -29t16.5 -21q0 -14 -12 -56zM309 482l-60 -225q41 -3 72 57t31 115q0 50 -43 53z" />
    <glyph glyph-name="germandbls" unicode="&#xdf;" horiz-adv-x="611" 
d="M84 406h-64q9 38 19 53t35 24q21 7 31 18t27 43q91 170 285 170q80 0 124.5 -35t44.5 -91q0 -50 -22 -84t-48 -47l-48 -24t-22 -20t19 -27t41 -37.5t41 -55.5t19 -78q0 -94 -72 -161.5t-165 -67.5q-51 0 -85 27t-34 72q0 44 22 68.5t55 24.5q27 0 43 -16t16 -36
q0 -16 -11 -33.5t-11 -19.5q0 -11 18 -11q22 0 41 20t19 55q0 29 -18 59.5t-40 52.5t-40 52t-18 59q0 24 10.5 38.5t34.5 30t33 23.5q21 19 35.5 59t14.5 82q0 49 -37 49q-27 0 -47 -23t-37 -90l-137 -529h-215l9 38q6 25 29.5 37t32.5 47z" />
    <glyph glyph-name="agrave" unicode="&#xe0;" 
d="M507 127l16 -33q-15 -45 -63.5 -76.5t-97.5 -31.5q-29 0 -50 10t-33.5 28t-17 26.5t-9.5 23.5q-13 -15 -29.5 -31.5t-50.5 -36.5t-65 -20q-53 0 -85 44t-32 106q0 78 28 147t71.5 114t95 71t100.5 26q39 0 75.5 -25t52.5 -25q20 0 65 24l44 25q5 0 5 -7q0 -1 -2 -8.5
t-8 -29t-13 -46.5l-58 -220q-10 -37 -10 -59q0 -27 19 -27q16 0 52 31zM260 149l52 192q12 44 12 50q0 17 -18 17q-38 0 -70 -51t-47 -107.5t-15 -90.5q0 -47 32 -47q15 0 34 15.5t20 21.5zM467 552h-63l-125 80q-42 28 -42 55q0 29 19 43t42 14q35 0 76 -58z" />
    <glyph glyph-name="aacute" unicode="&#xe1;" 
d="M507 127l16 -33q-15 -45 -63.5 -76.5t-97.5 -31.5q-29 0 -50 10t-33.5 28t-17 26.5t-9.5 23.5q-13 -15 -29.5 -31.5t-50.5 -36.5t-65 -20q-53 0 -85 44t-32 106q0 78 28 147t71.5 114t95 71t100.5 26q39 0 75.5 -25t52.5 -25q20 0 65 24l44 25q5 0 5 -7q0 -1 -2 -8.5
t-8 -29t-13 -46.5l-58 -220q-10 -37 -10 -59q0 -27 19 -27q16 0 52 31zM260 149l52 192q12 44 12 50q0 17 -18 17q-38 0 -70 -51t-47 -107.5t-15 -90.5q0 -47 32 -47q15 0 34 15.5t20 21.5zM355 552h-67l119 145q35 37 56 44q9 3 19 3q26 0 44 -18t18 -43q0 -29 -38 -49z
" />
    <glyph glyph-name="acircumflex" unicode="&#xe2;" 
d="M507 127l16 -33q-15 -45 -63.5 -76.5t-97.5 -31.5q-29 0 -50 10t-33.5 28t-17 26.5t-9.5 23.5q-13 -15 -29.5 -31.5t-50.5 -36.5t-65 -20q-53 0 -85 44t-32 106q0 78 28 147t71.5 114t95 71t100.5 26q39 0 75.5 -25t52.5 -25q20 0 65 24l44 25q5 0 5 -7q0 -1 -2 -8.5
t-8 -29t-13 -46.5l-58 -220q-10 -37 -10 -59q0 -27 19 -27q16 0 52 31zM260 149l52 192q12 44 12 50q0 17 -18 17q-38 0 -70 -51t-47 -107.5t-15 -90.5q0 -47 32 -47q15 0 34 15.5t20 21.5zM541 552h-63l-94 88l-119 -88h-74l151 178h120z" />
    <glyph glyph-name="atilde" unicode="&#xe3;" 
d="M507 127l16 -33q-15 -45 -63.5 -76.5t-97.5 -31.5q-29 0 -50 10t-33.5 28t-17 26.5t-9.5 23.5q-13 -15 -29.5 -31.5t-50.5 -36.5t-65 -20q-53 0 -85 44t-32 106q0 78 28 147t71.5 114t95 71t100.5 26q39 0 75.5 -25t52.5 -25q20 0 65 24l44 25q5 0 5 -7q0 -1 -2 -8.5
t-8 -29t-13 -46.5l-58 -220q-10 -37 -10 -59q0 -27 19 -27q16 0 52 31zM260 149l52 192q12 44 12 50q0 17 -18 17q-38 0 -70 -51t-47 -107.5t-15 -90.5q0 -47 32 -47q15 0 34 15.5t20 21.5zM242 572h-48q3 24 14 51.5t41 54t72 26.5q26 0 72.5 -20t65.5 -20q37 0 51 40h50
q-11 -53 -42.5 -92.5t-84.5 -39.5q-27 0 -79.5 21t-65.5 21q-34 0 -46 -42z" />
    <glyph glyph-name="adieresis" unicode="&#xe4;" 
d="M507 127l16 -33q-15 -45 -63.5 -76.5t-97.5 -31.5q-29 0 -50 10t-33.5 28t-17 26.5t-9.5 23.5q-13 -15 -29.5 -31.5t-50.5 -36.5t-65 -20q-53 0 -85 44t-32 106q0 78 28 147t71.5 114t95 71t100.5 26q39 0 75.5 -25t52.5 -25q20 0 65 24l44 25q5 0 5 -7q0 -1 -2 -8.5
t-8 -29t-13 -46.5l-58 -220q-10 -37 -10 -59q0 -27 19 -27q16 0 52 31zM260 149l52 192q12 44 12 50q0 17 -18 17q-38 0 -70 -51t-47 -107.5t-15 -90.5q0 -47 32 -47q15 0 34 15.5t20 21.5zM410 636q0 33 22 55.5t55 22.5t56 -23t23 -55t-23 -55t-56 -23t-55 22.5t-22 55.5z
M197 636q0 32 22 55t55 23q32 0 55.5 -23t23.5 -55q0 -33 -23 -55.5t-56 -22.5q-34 0 -55.5 22.5t-21.5 55.5z" />
    <glyph glyph-name="aring" unicode="&#xe5;" 
d="M507 127l16 -33q-15 -45 -63.5 -76.5t-97.5 -31.5q-29 0 -50 10t-33.5 28t-17 26.5t-9.5 23.5q-13 -15 -29.5 -31.5t-50.5 -36.5t-65 -20q-53 0 -85 44t-32 106q0 78 28 147t71.5 114t95 71t100.5 26q39 0 75.5 -25t52.5 -25q20 0 65 24l44 25q5 0 5 -7q0 -1 -2 -8.5
t-8 -29t-13 -46.5l-58 -220q-10 -37 -10 -59q0 -27 19 -27q16 0 52 31zM260 149l52 192q12 44 12 50q0 17 -18 17q-38 0 -70 -51t-47 -107.5t-15 -90.5q0 -47 32 -47q15 0 34 15.5t20 21.5zM308 650q0 47 33 79.5t79 32.5t79 -33t33 -79t-33 -79t-79 -33t-79 32.5t-33 79.5z
M368 650q0 -18 13.5 -35t37.5 -17q22 0 37.5 15t15.5 37q0 21 -15.5 36.5t-37.5 15.5q-24 0 -37.5 -17.5t-13.5 -34.5z" />
    <glyph glyph-name="ae" unicode="&#xe6;" horiz-adv-x="778" 
d="M282 149l54 194q10 38 10 52q0 13 -19 13q-43 0 -87 -97t-44 -156q0 -43 35 -43q40 0 51 37zM668 139l18 -50q-43 -47 -102.5 -75t-127.5 -28q-55 0 -99 24.5t-61 56.5q-18 -32 -63 -56.5t-90 -24.5q-64 0 -97.5 41.5t-33.5 108.5q0 78 28 147t71.5 114t95.5 71t102 26
q81 0 126 -45q2 3 13 18t18 21t12 6q12 0 12 -16q0 -7 -7 -27l2 -2q67 46 143 45q53 -1 84.5 -32t31.5 -74q0 -76 -66 -129t-176 -53h-20q-10 -40 -10 -61q0 -34 16.5 -49.5t52.5 -15.5q9 0 17 1t16.5 3t14 3.5t14.5 6.5t12.5 7t13 8.5t12.5 8.5t14 10.5t13 10.5zM594 418
q-27 0 -54 -43t-43 -99q49 4 86 42.5t37 73.5q0 12 -7.5 19t-18.5 7z" />
    <glyph glyph-name="ccedilla" unicode="&#xe7;" horiz-adv-x="500" 
d="M384 155l26 -50q-34 -54 -94 -86.5t-132 -32.5q-10 0 -14 1l-41 -53q20 4 34 4q44 0 71 -21t27 -55q0 -38 -37 -64t-110 -26q-53 0 -111 28l22 35q43 -19 74 -19q26 0 40 12t14 29q0 16 -11 26.5t-28 10.5q-13 0 -35 -8l-18 19l67 90q-55 14 -87.5 58.5t-32.5 105.5
q0 134 98.5 234.5t225.5 100.5q71 0 103.5 -33.5t32.5 -83.5q0 -43 -26.5 -75t-64.5 -32q-28 0 -42.5 15t-14.5 40q0 14 9 41t9 30q0 12 -17 12q-38 0 -83.5 -82t-45.5 -163q0 -37 17.5 -57t49.5 -20q67 0 125 69z" />
    <glyph glyph-name="egrave" unicode="&#xe8;" horiz-adv-x="500" 
d="M384 139l18 -50q-42 -46 -100 -74.5t-117 -28.5q-79 0 -130 51.5t-51 121.5q0 138 100.5 236.5t233.5 98.5q64 0 102 -31t38 -75q0 -76 -66 -129t-176 -53h-38q-10 -40 -10 -61q0 -34 16.5 -49.5t52.5 -15.5q9 0 17 1t16.5 3t14 3.5t14.5 6.5t12.5 7t13 8.5t12.5 8.5
t14 10.5t13 10.5zM328 418q-28 0 -61 -44.5t-48 -97.5q57 4 96 42t39 74q0 12 -7.5 19t-18.5 7zM445 552h-63l-125 80q-42 28 -42 55q0 29 19 43t42 14q35 0 76 -58z" />
    <glyph glyph-name="eacute" unicode="&#xe9;" horiz-adv-x="500" 
d="M384 139l18 -50q-42 -46 -100 -74.5t-117 -28.5q-79 0 -130 51.5t-51 121.5q0 138 100.5 236.5t233.5 98.5q64 0 102 -31t38 -75q0 -76 -66 -129t-176 -53h-38q-10 -40 -10 -61q0 -34 16.5 -49.5t52.5 -15.5q9 0 17 1t16.5 3t14 3.5t14.5 6.5t12.5 7t13 8.5t12.5 8.5
t14 10.5t13 10.5zM328 418q-28 0 -61 -44.5t-48 -97.5q57 4 96 42t39 74q0 12 -7.5 19t-18.5 7zM333 552h-67l119 145q35 37 56 44q9 3 19 3q26 0 44 -18t18 -43q0 -29 -38 -49z" />
    <glyph glyph-name="ecircumflex" unicode="&#xea;" horiz-adv-x="500" 
d="M384 139l18 -50q-42 -46 -100 -74.5t-117 -28.5q-79 0 -130 51.5t-51 121.5q0 138 100.5 236.5t233.5 98.5q64 0 102 -31t38 -75q0 -76 -66 -129t-176 -53h-38q-10 -40 -10 -61q0 -34 16.5 -49.5t52.5 -15.5q9 0 17 1t16.5 3t14 3.5t14.5 6.5t12.5 7t13 8.5t12.5 8.5
t14 10.5t13 10.5zM328 418q-28 0 -61 -44.5t-48 -97.5q57 4 96 42t39 74q0 12 -7.5 19t-18.5 7zM519 552h-63l-94 88l-119 -88h-74l151 178h120z" />
    <glyph glyph-name="edieresis" unicode="&#xeb;" horiz-adv-x="500" 
d="M384 139l18 -50q-42 -46 -100 -74.5t-117 -28.5q-79 0 -130 51.5t-51 121.5q0 138 100.5 236.5t233.5 98.5q64 0 102 -31t38 -75q0 -76 -66 -129t-176 -53h-38q-10 -40 -10 -61q0 -34 16.5 -49.5t52.5 -15.5q9 0 17 1t16.5 3t14 3.5t14.5 6.5t12.5 7t13 8.5t12.5 8.5
t14 10.5t13 10.5zM328 418q-28 0 -61 -44.5t-48 -97.5q57 4 96 42t39 74q0 12 -7.5 19t-18.5 7zM388 636q0 33 22 55.5t55 22.5t56 -23t23 -55t-23 -55t-56 -23t-55 22.5t-22 55.5zM175 636q0 32 22 55t55 23q32 0 55.5 -23t23.5 -55q0 -33 -23 -55.5t-56 -22.5
q-34 0 -55.5 22.5t-21.5 55.5z" />
    <glyph glyph-name="igrave" unicode="&#xec;" horiz-adv-x="333" 
d="M308 494l-101 -320q-11 -38 -11 -53q0 -26 22 -26q15 0 40 15l24 -46q-34 -34 -81.5 -56t-88.5 -22q-49 0 -76.5 22t-27.5 60q0 26 14 77l48 171q8 26 8 43t-17 30t-17 24q0 9 16 49q117 0 248 32zM332 552h-63l-125 80q-42 28 -42 55q0 29 19 43t42 14q35 0 76 -58z" />
    <glyph glyph-name="iacute" unicode="&#xed;" horiz-adv-x="333" 
d="M308 494l-101 -320q-11 -38 -11 -53q0 -26 22 -26q15 0 40 15l24 -46q-34 -34 -81.5 -56t-88.5 -22q-49 0 -76.5 22t-27.5 60q0 26 14 77l48 171q8 26 8 43t-17 30t-17 24q0 9 16 49q117 0 248 32zM220 552h-67l119 145q35 37 56 44q9 3 19 3q26 0 44 -18t18 -43
q0 -29 -38 -49z" />
    <glyph glyph-name="icircumflex" unicode="&#xee;" horiz-adv-x="333" 
d="M308 494l-101 -320q-11 -38 -11 -53q0 -26 22 -26q15 0 40 15l24 -46q-34 -34 -81.5 -56t-88.5 -22q-49 0 -76.5 22t-27.5 60q0 26 14 77l48 171q8 26 8 43t-17 30t-17 24q0 9 16 49q117 0 248 32zM406 552h-63l-94 88l-119 -88h-74l151 178h120z" />
    <glyph glyph-name="idieresis" unicode="&#xef;" horiz-adv-x="333" 
d="M308 494l-101 -320q-11 -38 -11 -53q0 -26 22 -26q15 0 40 15l24 -46q-34 -34 -81.5 -56t-88.5 -22q-49 0 -76.5 22t-27.5 60q0 26 14 77l48 171q8 26 8 43t-17 30t-17 24q0 9 16 49q117 0 248 32zM275 636q0 33 22 55.5t55 22.5t56 -23t23 -55t-23 -55t-56 -23t-55 22.5
t-22 55.5zM62 636q0 32 22 55t55 23q32 0 55.5 -23t23.5 -55q0 -33 -23 -55.5t-56 -22.5q-34 0 -55.5 22.5t-21.5 55.5z" />
    <glyph glyph-name="eth" unicode="&#xf0;" 
d="M168 104q0 -42 31 -42q35 0 65.5 61t45 125.5t14.5 97.5q0 42 -31 42q-35 0 -65.5 -61t-45 -125.5t-14.5 -97.5zM234 518l-49 68l84 54q-4 3 -22 10.5t-31.5 16.5t-13.5 19q0 12 7 38q80 0 144 -29l100 65l49 -68l-69 -45q87 -75 87 -233q0 -203 -78.5 -315.5
t-244.5 -112.5q-90 0 -148.5 46.5t-58.5 133.5q0 139 91.5 218.5t217.5 79.5q26 0 45 -4q2 20 2 30q0 56 -18 89z" />
    <glyph glyph-name="ntilde" unicode="&#xf1;" 
d="M234 340l-92 -340h-176l83 295q11 37 11 60q0 22 -14 33t-14 17q0 19 8 41l6 16q118 6 227 32l-22 -79l1 -1q7 5 28.5 20t33.5 22.5t31.5 18t37 15t35.5 4.5q39 0 62.5 -29t23.5 -71t-32 -150.5t-32 -124.5q0 -25 21 -25q8 0 38 19l23 -38q-87 -89 -166 -89q-46 0 -73 26
t-27 69q0 34 32 140t32 123q0 11 -7 17.5t-17 6.5q-23 0 -62 -28zM207 572h-48q3 24 14 51.5t41 54t72 26.5q26 0 72.5 -20t65.5 -20q37 0 51 40h50q-11 -53 -42.5 -92.5t-84.5 -39.5q-27 0 -79.5 21t-65.5 21q-34 0 -46 -42z" />
    <glyph glyph-name="ograve" unicode="&#xf2;" 
d="M-10 172q0 146 93 234t221 88q96 0 150 -51t54 -135q0 -146 -93 -234t-221 -88q-96 0 -150 51t-54 135zM330 372q0 46 -34 46q-28 0 -53.5 -39.5t-41 -93.5t-24.5 -103t-9 -74q0 -46 34 -46q28 0 53.5 39.5t41 93.5t24.5 103t9 74zM438 552h-63l-125 80q-42 28 -42 55
q0 29 19 43t42 14q35 0 76 -58z" />
    <glyph glyph-name="oacute" unicode="&#xf3;" 
d="M-10 172q0 146 93 234t221 88q96 0 150 -51t54 -135q0 -146 -93 -234t-221 -88q-96 0 -150 51t-54 135zM330 372q0 46 -34 46q-28 0 -53.5 -39.5t-41 -93.5t-24.5 -103t-9 -74q0 -46 34 -46q28 0 53.5 39.5t41 93.5t24.5 103t9 74zM326 552h-67l119 145q35 37 56 44
q9 3 19 3q26 0 44 -18t18 -43q0 -29 -38 -49z" />
    <glyph glyph-name="ocircumflex" unicode="&#xf4;" 
d="M-10 172q0 146 93 234t221 88q96 0 150 -51t54 -135q0 -146 -93 -234t-221 -88q-96 0 -150 51t-54 135zM330 372q0 46 -34 46q-28 0 -53.5 -39.5t-41 -93.5t-24.5 -103t-9 -74q0 -46 34 -46q28 0 53.5 39.5t41 93.5t24.5 103t9 74zM512 552h-63l-94 88l-119 -88h-74
l151 178h120z" />
    <glyph glyph-name="otilde" unicode="&#xf5;" 
d="M-10 172q0 146 93 234t221 88q96 0 150 -51t54 -135q0 -146 -93 -234t-221 -88q-96 0 -150 51t-54 135zM330 372q0 46 -34 46q-28 0 -53.5 -39.5t-41 -93.5t-24.5 -103t-9 -74q0 -46 34 -46q28 0 53.5 39.5t41 93.5t24.5 103t9 74zM213 572h-48q3 24 14 51.5t41 54
t72 26.5q26 0 72.5 -20t65.5 -20q37 0 51 40h50q-11 -53 -42.5 -92.5t-84.5 -39.5q-27 0 -79.5 21t-65.5 21q-34 0 -46 -42z" />
    <glyph glyph-name="odieresis" unicode="&#xf6;" 
d="M-10 172q0 146 93 234t221 88q96 0 150 -51t54 -135q0 -146 -93 -234t-221 -88q-96 0 -150 51t-54 135zM330 372q0 46 -34 46q-28 0 -53.5 -39.5t-41 -93.5t-24.5 -103t-9 -74q0 -46 34 -46q28 0 53.5 39.5t41 93.5t24.5 103t9 74zM381 636q0 33 22 55.5t55 22.5t56 -23
t23 -55t-23 -55t-56 -23t-55 22.5t-22 55.5zM168 636q0 32 22 55t55 23q32 0 55.5 -23t23.5 -55q0 -33 -23 -55.5t-56 -22.5q-34 0 -55.5 22.5t-21.5 55.5z" />
    <glyph glyph-name="divide" unicode="&#xf7;" horiz-adv-x="600" 
d="M207 448q0 38 27.5 65t65.5 27q37 0 65 -27.5t28 -64.5t-28 -65.5t-65 -28.5q-38 0 -65.5 28t-27.5 66zM207 34q0 38 27.5 65t65.5 27q37 0 65 -27.5t28 -64.5t-28 -65.5t-65 -28.5q-38 0 -65.5 28t-27.5 66zM540 180h-480v120h480v-120z" />
    <glyph glyph-name="oslash" unicode="&#xf8;" 
d="M329 330l-162 -256q9 -20 32 -20q25 0 48 28.5t39 72.5t27.5 88t17.5 85zM172 169l156 243q-9 14 -29 14q-44 0 -78.5 -80.5t-50.5 -174.5zM-1 -87l69 106q-78 49 -78 153q0 146 93 234t221 88q38 0 66 -7l47 73h69l-61 -95q83 -50 83 -157q0 -146 -93 -234t-221 -88
q-40 0 -70 9l-53 -82h-72z" />
    <glyph glyph-name="ugrave" unicode="&#xf9;" 
d="M501 119l20 -43q-81 -90 -158 -90q-42 0 -67.5 23t-33.5 60q-30 -25 -49 -39t-53.5 -29t-66.5 -15q-47 0 -73 30t-26 81q0 33 28.5 134t28.5 116q0 21 -19 33.5t-19 20.5q0 7 8 35l7 25q107 5 241 33l-77 -290q-14 -51 -14 -63q0 -23 21 -23q25 0 65 29l41 153
q14 50 14 63q0 9 -13 18t-13 16q0 8 5 23l12 38q79 -2 222 36l-81 -302q-12 -44 -12 -66q0 -25 22 -25q14 0 40 18zM421 552h-63l-125 80q-42 28 -42 55q0 29 19 43t42 14q35 0 76 -58z" />
    <glyph glyph-name="uacute" unicode="&#xfa;" 
d="M501 119l20 -43q-81 -90 -158 -90q-42 0 -67.5 23t-33.5 60q-30 -25 -49 -39t-53.5 -29t-66.5 -15q-47 0 -73 30t-26 81q0 33 28.5 134t28.5 116q0 21 -19 33.5t-19 20.5q0 7 8 35l7 25q107 5 241 33l-77 -290q-14 -51 -14 -63q0 -23 21 -23q25 0 65 29l41 153
q14 50 14 63q0 9 -13 18t-13 16q0 8 5 23l12 38q79 -2 222 36l-81 -302q-12 -44 -12 -66q0 -25 22 -25q14 0 40 18zM309 552h-67l119 145q35 37 56 44q9 3 19 3q26 0 44 -18t18 -43q0 -29 -38 -49z" />
    <glyph glyph-name="ucircumflex" unicode="&#xfb;" 
d="M501 119l20 -43q-81 -90 -158 -90q-42 0 -67.5 23t-33.5 60q-30 -25 -49 -39t-53.5 -29t-66.5 -15q-47 0 -73 30t-26 81q0 33 28.5 134t28.5 116q0 21 -19 33.5t-19 20.5q0 7 8 35l7 25q107 5 241 33l-77 -290q-14 -51 -14 -63q0 -23 21 -23q25 0 65 29l41 153
q14 50 14 63q0 9 -13 18t-13 16q0 8 5 23l12 38q79 -2 222 36l-81 -302q-12 -44 -12 -66q0 -25 22 -25q14 0 40 18zM495 552h-63l-94 88l-119 -88h-74l151 178h120z" />
    <glyph glyph-name="udieresis" unicode="&#xfc;" 
d="M501 119l20 -43q-81 -90 -158 -90q-42 0 -67.5 23t-33.5 60q-30 -25 -49 -39t-53.5 -29t-66.5 -15q-47 0 -73 30t-26 81q0 33 28.5 134t28.5 116q0 21 -19 33.5t-19 20.5q0 7 8 35l7 25q107 5 241 33l-77 -290q-14 -51 -14 -63q0 -23 21 -23q25 0 65 29l41 153
q14 50 14 63q0 9 -13 18t-13 16q0 8 5 23l12 38q79 -2 222 36l-81 -302q-12 -44 -12 -66q0 -25 22 -25q14 0 40 18zM364 636q0 33 22 55.5t55 22.5t56 -23t23 -55t-23 -55t-56 -23t-55 22.5t-22 55.5zM151 636q0 32 22 55t55 23q32 0 55.5 -23t23.5 -55q0 -33 -23 -55.5
t-56 -22.5q-34 0 -55.5 22.5t-21.5 55.5z" />
    <glyph glyph-name="yacute" unicode="&#xfd;" horiz-adv-x="444" 
d="M233 365l26 -213h2l21 33t19 30.5l15 25.5t15.5 29t12.5 29t14 37q-26 2 -37 21t-11 39q0 36 21 67t55 31q26 0 40 -19.5t14 -53.5q0 -43 -45 -138t-129 -218q-96 -141 -165 -210t-119 -69q-32 0 -50 25t-18 67q0 39 22 66.5t54 27.5q48 0 48 -55q0 -23 15 -23
q22 0 59 55l-46 362q-6 39 -25 39q-13 0 -40 -20l-14 50q45 49 81 74.5t78 25.5q25 0 42.5 -10.5t26 -32t12 -35t6.5 -37.5zM270 552h-67l119 145q35 37 56 44q9 3 19 3q26 0 44 -18t18 -43q0 -29 -38 -49z" />
    <glyph glyph-name="thorn" unicode="&#xfe;" 
d="M235 328l-52 -191q-5 -17 -5 -31q0 -20 26 -20q30 0 58 46.5t43 100.5t15 89q0 41 -30 41q-18 0 -35 -12.5t-20 -22.5zM89 -200h-174l201 757q6 24 6 43q0 21 -19.5 32.5t-19.5 22.5q0 3 4 17l6 24l241 4l-77 -281l2 -2q51 43 83.5 60t66.5 17q46 0 70.5 -39t24.5 -106
q0 -44 -15 -102t-43.5 -118.5t-80.5 -101.5t-116 -41q-55 0 -97 45z" />
    <glyph glyph-name="ydieresis" unicode="&#xff;" horiz-adv-x="444" 
d="M233 365l26 -213h2l21 33t19 30.5l15 25.5t15.5 29t12.5 29t14 37q-26 2 -37 21t-11 39q0 36 21 67t55 31q26 0 40 -19.5t14 -53.5q0 -43 -45 -138t-129 -218q-96 -141 -165 -210t-119 -69q-32 0 -50 25t-18 67q0 39 22 66.5t54 27.5q48 0 48 -55q0 -23 15 -23
q22 0 59 55l-46 362q-6 39 -25 39q-13 0 -40 -20l-14 50q45 49 81 74.5t78 25.5q25 0 42.5 -10.5t26 -32t12 -35t6.5 -37.5zM325 636q0 33 22 55.5t55 22.5t56 -23t23 -55t-23 -55t-56 -23t-55 22.5t-22 55.5zM112 636q0 32 22 55t55 23q32 0 55.5 -23t23.5 -55
q0 -33 -23 -55.5t-56 -22.5q-34 0 -55.5 22.5t-21.5 55.5z" />
    <glyph glyph-name="dotlessi" unicode="&#x131;" horiz-adv-x="333" 
d="M308 494l-101 -320q-11 -38 -11 -53q0 -26 22 -26q15 0 40 15l24 -46q-34 -34 -81.5 -56t-88.5 -22q-49 0 -76.5 22t-27.5 60q0 26 14 77l48 171q8 26 8 43t-17 30t-17 24q0 9 16 49q117 0 248 32z" />
    <glyph glyph-name="Lslash" unicode="&#x141;" horiz-adv-x="500" 
d="M27 120l42 157l-94 -33l21 88l96 34l46 173q10 36 10 52q0 17 -18 31.5t-18 29.5q0 10 5 25l8 23h288l-11 -49q-3 -14 -12.5 -21.5t-19 -10t-20 -13t-15.5 -29.5l-36 -138l117 41l-21 -88l-119 -42l-69 -264h56q53 0 88 37q15 16 30 44.5t26.5 45t27.5 16.5h30l-59 -229
h-464l13 53q3 13 34 26.5t38 40.5z" />
    <glyph glyph-name="lslash" unicode="&#x142;" horiz-adv-x="333" 
d="M378 498l-20 -70l-101 -42l-62 -219q-11 -36 -11 -48q0 -24 22 -24q15 0 40 15l24 -46q-39 -39 -75.5 -58.5t-85.5 -19.5q-48 0 -76 28.5t-28 75.5q0 32 16 89l35 123l-101 -42l19 67l101 43l53 188q6 22 6 42q0 21 -19.5 32.5t-19.5 22.5q0 3 4 17l6 24l241 4l-69 -245z
" />
    <glyph glyph-name="OE" unicode="&#x152;" horiz-adv-x="889" 
d="M595 700h200q95 0 130 14l-59 -216h-19q-13 0 -20 6.5t-9 14t-5 26t-6 31.5q-6 22 -25 30t-61 8h-57l-54 -206h24q44 0 62 33q22 39 40 39h35l-66 -244h-20q-6 0 -10 2t-6.5 4.5t-4.5 8.5t-3 10t-2.5 14t-2.5 16q-4 18 -12.5 24.5t-27.5 6.5h-26l-63 -236h79q76 0 116 66
q7 11 15.5 26t12 20.5t9 13t10 9.5t11 4t15.5 2h21l-60 -227h-328q-50 0 -94 -7q-61 -7 -74 -7q-65 0 -112.5 24t-72.5 64t-36 83t-11 90q0 115 49.5 222.5t138 176t191.5 68.5q41 0 93 -7q72 -7 95 -7zM218 136q0 -36 15 -55t42 -19q28 0 46.5 24t32.5 75l92 351
q16 61 16 82q0 44 -43 44q-39 0 -68 -43.5t-68 -160.5q-33 -98 -49 -180.5t-16 -117.5z" />
    <glyph glyph-name="oe" unicode="&#x153;" horiz-adv-x="778" 
d="M664 139l18 -50q-42 -46 -100 -74.5t-117 -28.5q-64 0 -114 45q-67 -45 -157 -45q-96 0 -150 51t-54 135q0 146 91.5 234t210.5 88q100 0 151 -59q83 59 173 59q56 0 92 -31.5t36 -74.5q0 -76 -65 -129t-173 -53h-28q-10 -40 -10 -61q0 -34 16.5 -49.5t52.5 -15.5
q9 0 17 1t16.5 3t14 3.5t14.5 6.5t12.5 7t13 8.5t12.5 8.5t14 10.5t13 10.5zM594 418q-28 0 -58.5 -44.5t-42.5 -97.5q52 4 89.5 42.5t37.5 73.5q0 12 -7.5 19t-18.5 7zM168 108q0 -46 34 -46q28 0 53.5 39.5t41 93.5t24.5 103t9 74q0 46 -34 46q-28 0 -53.5 -39.5
t-41 -93.5t-24.5 -103t-9 -74z" />
    <glyph glyph-name="Scaron" unicode="&#x160;" 
d="M-48 0l67 246h22q32 0 40 -49q9 -55 36 -86t67 -31q45 0 70.5 29.5t25.5 67.5q0 29 -18 56.5t-44 51t-52 49.5t-44 65t-18 85q0 96 66.5 163t147.5 67q38 0 67.5 -13t50 -26t36.5 -13q15 0 32 10.5t27 10.5h34l-64 -229h-13q-5 0 -9 1t-7.5 2t-6.5 4t-5 5.5t-4 7.5t-3 9
l-3 12t-3 13.5l-3 16.5t-4 19q-8 39 -29.5 57.5t-46.5 18.5q-31 0 -53.5 -22.5t-22.5 -59.5q0 -27 20 -52t48 -46.5t56 -46.5t48 -65t20 -90q0 -98 -72 -175t-170 -77q-43 0 -98.5 24t-81.5 24q-36 0 -56 -34h-50zM215 910h63l94 -88l119 88h74l-151 -178h-120z" />
    <glyph glyph-name="scaron" unicode="&#x161;" horiz-adv-x="444" 
d="M35 184q31 0 46 -17.5t15 -37.5q0 -13 -8 -27t-8 -20q0 -8 10 -14t28 -6q23 0 41.5 15t18.5 38q0 22 -21.5 46t-47.5 43.5t-47.5 53t-21.5 71.5q0 75 65.5 120t149.5 45q77 0 115 -28.5t38 -70.5q0 -31 -18 -51t-44 -20q-25 0 -38.5 12.5t-13.5 31.5q0 8 2 20t2 16
q0 18 -25 18q-23 0 -39 -14.5t-16 -39.5q0 -20 23.5 -40t51.5 -36.5t51.5 -50t23.5 -77.5q0 -67 -60.5 -122.5t-170.5 -55.5q-78 0 -125.5 33.5t-47.5 85.5q0 28 17 53.5t54 25.5zM142 730h63l94 -88l119 88h74l-151 -178h-120z" />
    <glyph glyph-name="Ydieresis" unicode="&#x178;" 
d="M121 118l47 174l-63 267q-7 30 -17.5 46t-18 18t-13.5 6t-6 12q0 16 7 42l4 17h307l-15 -55q-3 -11 -13.5 -17.5t-21 -8.5t-18.5 -10.5t-8 -23.5q0 -12 10 -54l35 -158l101 151q34 49 34 73q0 15 -15 25t-15 24q0 8 3.5 18.5t9 21.5t6.5 14h193l-8 -38q-4 -17 -13.5 -26
t-21.5 -13t-32 -20.5t-39 -45.5l-189 -290l-30 -115q-9 -31 -9 -40q0 -14 19 -27t19 -23q0 -13 -5 -35l-7 -27h-300l12 45q5 18 15.5 27.5t21 12t20.5 10.5t14 23zM398 816q0 33 22 55.5t55 22.5t56 -23t23 -55t-23 -55t-56 -23t-55 22.5t-22 55.5zM185 816q0 32 22 55
t55 23q32 0 55.5 -23t23.5 -55q0 -33 -23 -55.5t-56 -22.5q-34 0 -55.5 22.5t-21.5 55.5z" />
    <glyph glyph-name="Zcaron" unicode="&#x17d;" 
d="M500 229l-57 -229h-483l24 91l370 523h-96q-29 0 -45 -15t-29 -42q-1 -2 -6 -13t-6 -13.5t-6 -11.5t-7.5 -12t-8 -9t-10 -8t-11 -4t-13.5 -2h-29l60 230q22 -8 65 -12q24 -2 65 -2h319l-22 -88l-370 -526h53q68 0 98 16t51 55q4 7 11.5 24t12.5 25t16 15.5t26 7.5h28z
M215 910h63l94 -88l119 88h74l-151 -178h-120z" />
    <glyph glyph-name="zcaron" unicode="&#x17e;" horiz-adv-x="500" 
d="M-31 32l296 300l-2 2q-48 -10 -64 -10q-17 0 -49 6.5t-48 6.5q-28 0 -56 -37l-32 26q24 75 71 121.5t117 46.5q25 0 93.5 -12t93.5 -12q33 0 54 3.5t28.5 7t8.5 3.5q4 0 4 -4q0 -3 -14 -19l-311 -317l2 -2q34 18 52 18q26 0 47.5 -16.5t37.5 -33t30 -16.5q16 0 16 13
q0 6 -11 21.5t-11 38.5q0 29 16.5 52t43.5 23q26 0 41 -21t15 -55q0 -62 -53 -121t-149 -59q-17 0 -89 12t-112 12q-32 0 -59 -5l-26 -5q-5 0 -5 5q0 3 24 27zM170 730h63l94 -88l119 88h74l-151 -178h-120z" />
    <glyph glyph-name="florin" unicode="&#x192;" 
d="M164 351h-96l11 77h96q21 128 83.5 207t168.5 79q54 0 91.5 -29t37.5 -76q0 -30 -19 -48.5t-52 -18.5q-59 0 -59 54q0 10 3 20.5t3 13.5q0 8 -12 8q-50 0 -62 -212h105l-10 -76h-103l-24 -217q-10 -91 -38 -157t-67.5 -102t-82 -52t-90.5 -16q-56 0 -89 29t-33 67
q0 37 21 59.5t53 22.5q28 0 46 -14t18 -33q0 -12 -4 -24t-4 -17q0 -10 15 -10q35 0 46 88z" />
    <glyph glyph-name="circumflex" unicode="&#x2c6;" horiz-adv-x="333" 
d="M400 552h-63l-94 88l-119 -88h-74l151 178h120z" />
    <glyph glyph-name="caron" unicode="&#x2c7;" horiz-adv-x="333" 
d="M86 730h63l94 -88l119 88h74l-151 -178h-120z" />
    <glyph glyph-name="uni02C9" unicode="&#x2c9;" horiz-adv-x="333" 
d="M387 594h-327l23 82h327z" />
    <glyph glyph-name="breve" unicode="&#x2d8;" horiz-adv-x="333" 
d="M360 714h49q0 -20 -9.5 -44.5t-29 -52.5t-58 -46.5t-88.5 -18.5q-60 0 -94 36t-34 102q0 8 2 24h52q4 -40 28 -59q22 -19 64 -19q24 0 43 5t31.5 16t19 18.5t15 22t9.5 16.5z" />
    <glyph glyph-name="dotaccent" unicode="&#x2d9;" horiz-adv-x="333" 
d="M156 636q0 32 22 55t55 23q32 0 55.5 -23t23.5 -55q0 -33 -23 -55.5t-56 -22.5q-34 0 -55.5 22.5t-21.5 55.5z" />
    <glyph glyph-name="ring" unicode="&#x2da;" horiz-adv-x="333" 
d="M167 650q0 47 33 79.5t79 32.5t79 -33t33 -79t-33 -79t-79 -33t-79 32.5t-33 79.5zM227 650q0 -18 13.5 -35t37.5 -17q22 0 37.5 15t15.5 37q0 21 -15.5 36.5t-37.5 15.5q-24 0 -37.5 -17.5t-13.5 -34.5z" />
    <glyph glyph-name="ogonek" unicode="&#x2db;" horiz-adv-x="333" 
d="M226 26v-12q-54 -18 -106.5 -53t-52.5 -76q0 -21 12 -32t27 -11q33 0 99 42l16 -34q-94 -64 -161 -64q-42 0 -71.5 19.5t-29.5 56.5q0 28 13 51t38 39.5t49.5 28.5t60 21.5t56.5 14t50 9.5z" />
    <glyph glyph-name="tilde" unicode="&#x2dc;" horiz-adv-x="333" 
d="M101 572h-48q3 24 14 51.5t41 54t72 26.5q26 0 72.5 -20t65.5 -20q37 0 51 40h50q-11 -53 -42.5 -92.5t-84.5 -39.5q-27 0 -79.5 21t-65.5 21q-34 0 -46 -42z" />
    <glyph glyph-name="hungarumlaut" unicode="&#x2dd;" horiz-adv-x="333" 
d="M340 552h-67l119 145q35 37 56 44q9 3 19 3q26 0 44 -18t18 -43q0 -29 -38 -49zM130 552h-63l93 134q41 58 76 58q23 0 42 -14t19 -43q0 -27 -42 -55z" />
    <glyph glyph-name="uni03A9" unicode="&#x3a9;" horiz-adv-x="728" 
d="M646 178l-79 -178h-256l-3 23q1 1 41.5 62t53 81t41.5 69t45 86t26 72q79 278 -62 278q-66 0 -120 -62.5t-98 -218.5q-16 -56 -19.5 -127t0.5 -119t13 -121l-16 -23h-256l27 178h35q3 -43 14.5 -56t45.5 -13h89q-23 22 -36 37t-32.5 44t-27 56.5t-8.5 68t12 84.5
q41 141 151.5 227t241.5 86q132 0 191.5 -83.5t18.5 -224.5q-14 -50 -41.5 -93t-70.5 -82t-72.5 -61.5t-82.5 -58.5h103q30 0 48 12.5t46 56.5h37z" />
    <glyph glyph-name="uni03BC" unicode="&#x3bc;" 
d="M532 494l-81 -302q-12 -44 -12 -66q0 -25 22 -25q14 0 40 18l20 -43q-81 -90 -158 -90q-42 0 -67.5 23t-33.5 60q-75 -62 -122 -75l-51 -194h-177l92 348q47 177 47 199q0 21 -19 33.5t-19 20.5q0 7 8 35l7 25q107 5 241 33l-77 -290q-14 -51 -14 -63q0 -23 21 -23
q25 0 65 29l41 153q14 50 14 63q0 9 -13 18t-13 16q0 8 5 23l12 38q79 -2 222 36z" />
    <glyph glyph-name="pi" unicode="&#x3c0;" horiz-adv-x="590" 
d="M574 486l29 -7q-13 -33 -36 -72t-38 -54q-21 -7 -64 -7q-23 -61 -58 -187q-25 -87 12 -87q19 0 49 19l5 -29q-28 -31 -69.5 -53t-75.5 -22q-108 0 -68 140q18 63 73 222q-27 -1 -64.5 0.5t-51.5 1.5l-3 -9q-72 -250 -162 -336q-37 -15 -80 -19l-1 24q69 71 118.5 164.5
t73.5 177.5q-42 1 -68.5 -7t-67.5 -30l-8 34l17 16q16 16 19.5 19t20 17t25 18t26.5 13.5t32.5 13t34.5 6.5t41 3q158 -2 271 -2q25 0 38.5 6.5t29.5 25.5z" />
    <glyph glyph-name="uni2010" unicode="&#x2010;" horiz-adv-x="333" 
d="M30 304h257l-34 -128h-257z" />
    <glyph glyph-name="endash" unicode="&#x2013;" horiz-adv-x="500" 
d="M502 294l-30 -108h-530l30 108h530z" />
    <glyph glyph-name="emdash" unicode="&#x2014;" horiz-adv-x="1000" 
d="M972 186h-1030l30 108h1030z" />
    <glyph glyph-name="quoteleft" unicode="&#x2018;" horiz-adv-x="278" 
d="M255 724l27 -42q-55 -39 -92.5 -79t-37.5 -59q0 -5 3.5 -5.5t19.5 -0.5q73 0 73 -77q0 -52 -33.5 -93.5t-83.5 -41.5q-39 0 -62 31t-23 84q0 72 56 149t153 134z" />
    <glyph glyph-name="quoteright" unicode="&#x2019;" horiz-adv-x="278" 
d="M95 316l-27 42q55 39 92.5 79t37.5 59q0 5 -3.5 5.5t-19.5 0.5q-73 0 -73 77q0 52 33.5 93.5t83.5 41.5q39 0 62 -31t23 -84q0 -72 -56 -149t-153 -134z" />
    <glyph glyph-name="quotesinglbase" unicode="&#x201a;" horiz-adv-x="278" 
d="M-37 -186l-27 42q55 39 92.5 79t37.5 59q0 5 -3.5 5.5t-19.5 0.5q-73 0 -73 77q0 52 33.5 93.5t83.5 41.5q39 0 62 -31t23 -84q0 -72 -56 -149t-153 -134z" />
    <glyph glyph-name="quotedblleft" unicode="&#x201c;" 
d="M255 724l27 -42q-55 -39 -92.5 -79t-37.5 -59q0 -5 3.5 -5.5t19.5 -0.5q73 0 73 -77q0 -52 -33.5 -93.5t-83.5 -41.5q-39 0 -62 31t-23 84q0 72 56 149t153 134zM533 724l27 -42q-55 -39 -92.5 -79t-37.5 -59q0 -5 3.5 -5.5t19.5 -0.5q73 0 73 -77q0 -52 -33.5 -93.5
t-83.5 -41.5q-39 0 -62 31t-23 84q0 72 56 149t153 134z" />
    <glyph glyph-name="quotedblright" unicode="&#x201d;" 
d="M373 316l-27 42q53 38 91.5 80t38.5 58q0 6 -30 6q-66 0 -66 79q0 44 32.5 88.5t78.5 44.5q42 0 66.5 -31t24.5 -75q0 -70 -52.5 -148.5t-156.5 -143.5zM95 316l-27 42q53 38 91.5 80t38.5 58q0 6 -30 6q-66 0 -66 79q0 44 32.5 88.5t78.5 44.5q42 0 66.5 -31t24.5 -75
q0 -70 -52.5 -148.5t-156.5 -143.5z" />
    <glyph glyph-name="quotedblbase" unicode="&#x201e;" 
d="M241 -186l-27 42q55 39 92.5 79t37.5 59q0 5 -3.5 5.5t-19.5 0.5q-73 0 -73 77q0 52 33.5 93.5t83.5 41.5q39 0 62 -31t23 -84q0 -72 -56 -149t-153 -134zM-37 -186l-27 42q55 39 92.5 79t37.5 59q0 5 -3.5 5.5t-19.5 0.5q-73 0 -73 77q0 52 33.5 93.5t83.5 41.5
q39 0 62 -31t23 -84q0 -72 -56 -149t-153 -134z" />
    <glyph glyph-name="dagger" unicode="&#x2020;" 
d="M201 -124h-37q35 139 35 293q0 60 -8 135q87 80 102 156q-49 1 -91 -24.5t-67 -25.5q-27 0 -44 19t-17 46q0 34 16.5 51.5t44.5 17.5q27 0 69 -25t95 -27q2 16 2 22q0 26 -13.5 70.5t-13.5 60.5q0 35 22 52t51 17t48 -15.5t19 -40.5q0 -27 -15.5 -49t-35.5 -51t-28 -66
q44 4 89 28t69 24q26 0 43 -17.5t17 -49.5q0 -31 -18 -49t-49 -18q-23 0 -42.5 12t-46 24.5t-67.5 13.5q-4 -31 -4 -38q0 -74 37 -125q-119 -201 -162 -421z" />
    <glyph glyph-name="daggerdbl" unicode="&#x2021;" 
d="M335 714q29 0 48 -15.5t19 -40.5q0 -27 -15.5 -49t-35.5 -51t-28 -66q44 4 89 28t69 24q26 0 43 -17.5t17 -49.5q0 -31 -18 -49t-49 -18q-23 0 -42.5 12t-46 24.5t-67.5 13.5q0 -3 -1.5 -13.5t-1.5 -15.5q0 -43 5 -68.5t26 -67.5q-45 -45 -67 -79.5t-32 -85.5
q49 -1 91 24.5t67 25.5q27 0 44 -19t17 -46q0 -34 -16.5 -51.5t-44.5 -17.5q-27 0 -69 25t-95 27q-2 -16 -2 -22q0 -26 13.5 -70.5t13.5 -60.5q0 -35 -22 -52t-51 -17t-48 15.5t-19 40.5q0 27 15.5 49t35.5 51t28 66q-44 -4 -89 -28t-69 -24q-26 0 -43 17.5t-17 49.5
q0 31 18 49t49 18q23 0 42.5 -12t46 -24.5t67.5 -13.5q3 33 3 50q0 60 -34 124q87 80 102 156q-49 1 -91 -24.5t-67 -25.5q-27 0 -44 19t-17 46q0 34 16.5 51.5t44.5 17.5q27 0 69 -25t95 -27q2 16 2 22q0 26 -13.5 70.5t-13.5 60.5q0 35 22 52t51 17z" />
    <glyph glyph-name="bullet" unicode="&#x2022;" horiz-adv-x="500" 
d="M75 350q0 73 51 124t124 51t124 -51t51 -124t-51 -124t-124 -51t-124 51t-51 124z" />
    <glyph glyph-name="ellipsis" unicode="&#x2026;" horiz-adv-x="1000" 
d="M437 -14q-39 0 -60 28t-21 63q0 66 35.5 102.5t78.5 36.5q42 0 65 -30.5t23 -67.5q0 -41 -33.5 -86.5t-87.5 -45.5zM107 -14q-39 0 -60 28t-21 63q0 66 35.5 102.5t78.5 36.5q42 0 65 -30.5t23 -67.5q0 -41 -33.5 -86.5t-87.5 -45.5zM767 -14q-39 0 -60 28t-21 63
q0 66 35.5 102.5t78.5 36.5q42 0 65 -30.5t23 -67.5q0 -41 -33.5 -86.5t-87.5 -45.5z" />
    <glyph glyph-name="perthousand" unicode="&#x2030;" horiz-adv-x="1000" 
d="M104 357q0 -31 21 -31q34 0 64 127q31 130 31 184q0 31 -21 31q-34 0 -64 -127q-31 -130 -31 -184zM120 -14l378 728h71l-378 -728h-71zM476 63q0 -31 21 -31q34 0 64 127q31 130 31 184q0 31 -21 31q-34 0 -64 -127q-31 -130 -31 -184zM204 714q54 0 83 -41.5t29 -99.5
q0 -112 -59 -202.5t-138 -90.5q-60 0 -85.5 43t-25.5 103q0 61 21 125t67.5 113.5t107.5 49.5zM576 420q54 0 83 -41.5t29 -99.5q0 -112 -59 -202.5t-138 -90.5q-60 0 -85.5 43t-25.5 103q0 61 21 125t67.5 113.5t107.5 49.5zM802 63q0 -31 21 -31q34 0 64 127
q31 130 31 184q0 31 -21 31q-34 0 -64 -127q-31 -130 -31 -184zM902 420q54 0 83 -41.5t29 -99.5q0 -112 -59 -202.5t-138 -90.5q-60 0 -85.5 43t-25.5 103q0 61 21 125t67.5 113.5t107.5 49.5z" />
    <glyph glyph-name="guilsinglleft" unicode="&#x2039;" horiz-adv-x="333" 
d="M-10 240q0 5 14.5 16t54 37.5t72.5 50.5q21 15 50 39.5t45 36t23 11.5q15 0 15 -14q0 -20 -36.5 -63t-73 -80t-36.5 -42q0 -1 36.5 -70t36.5 -92q0 -21 -17 -21q-5 0 -15.5 10.5t-28.5 31t-30 32.5l-32.5 32.5t-26.5 26l-20 19t-15 15t-9 10.5t-5.5 8t-1.5 6z" />
    <glyph glyph-name="guilsinglright" unicode="&#x203a;" horiz-adv-x="333" 
d="M283 240q0 -5 -14.5 -16t-54 -37.5t-72.5 -50.5q-21 -15 -50 -39.5t-45 -36t-23 -11.5q-15 0 -15 14q0 20 36.5 63t73 80t36.5 42q0 1 -36.5 70t-36.5 92q0 21 17 21q5 0 15.5 -10.5t28.5 -31t30 -32.5l32.5 -32.5t26.5 -26l20 -19t15 -15t9 -10.5t5.5 -8t1.5 -6z" />
    <glyph glyph-name="fraction" unicode="&#x2044;" horiz-adv-x="167" 
d="M334 714l-395 -728h-106l396 728h105z" />
    <glyph glyph-name="Euro" unicode="&#x20ac;" 
d="M411 334l-18 -68h-131q-8 -50 -8 -81q0 -115 59 -115q31 0 65 33.5t65 113.5l52 -30q-24 -90 -81 -145.5t-135 -55.5q-37 0 -70 13t-62 40t-46 75t-17 110q0 28 1 42h-86l18 68h77q6 32 15 64h-74l18 68h80q47 111 125 179.5t158 68.5q31 0 54 -11t36.5 -22.5t22.5 -11.5
q13 0 18 17h54l-55 -210h-23q-19 0 -25 13t-14 65q-4 26 -6.5 39t-13 29t-27.5 16q-33 0 -65.5 -47.5t-59.5 -124.5h135l-18 -68h-138q-11 -37 -17 -64h137z" />
    <glyph glyph-name="afii61289" unicode="&#x2113;" horiz-adv-x="457" 
d="M357 148l19 -24q-111 -137 -233 -137q-81 0 -107 41q-13 28 -13 52.5t19 99.5l18 65l-64 -35l-5 34l83 49l41 145q29 102 55.5 153.5t69.5 92.5q71 68 140 68q54 0 71.5 -41t-1.5 -102q-23 -82 -76.5 -145.5t-152.5 -138.5l-23 -78q-28 -97 -22 -136t51 -39q56 0 130 76z
M268 490l-30 -103q96 83 136 219q31 108 -7 108q-22 0 -40.5 -42t-58.5 -182z" />
    <glyph glyph-name="trademark" unicode="&#x2122;" horiz-adv-x="1000" 
d="M259 670v-303q0 -24 7.5 -31.5t44.5 -9.5v-30h-226v30q37 2 44.5 9.5t7.5 31.5v303h-42q-51 0 -62 -58h-28v88h386v-88h-28q-11 58 -62 58h-42zM663 297l-128 274h-2v-170q0 -47 7.5 -60t43.5 -15v-30h-137v30q37 2 44.5 15t7.5 60v216q0 24 -23 38.5t-49 14.5v30h163
l127 -263l138 263h139v-28q-36 -1 -43.5 -8t-7.5 -31v-266q0 -24 7.5 -31.5t44.5 -9.5v-30h-226v30q37 2 44.5 9.5t7.5 31.5v204h-2l-140 -274h-16z" />
    <glyph glyph-name="Omega" unicode="&#x2126;" horiz-adv-x="728" 
d="M646 178l-79 -178h-256l-3 23q1 1 41.5 62t53 81t41.5 69t45 86t26 72q79 278 -62 278q-66 0 -120 -62.5t-98 -218.5q-16 -56 -19.5 -127t0.5 -119t13 -121l-16 -23h-256l27 178h35q3 -43 14.5 -56t45.5 -13h89q-23 22 -36 37t-32.5 44t-27 56.5t-8.5 68t12 84.5
q41 141 151.5 227t241.5 86q132 0 191.5 -83.5t18.5 -224.5q-14 -50 -41.5 -93t-70.5 -82t-72.5 -61.5t-82.5 -58.5h103q30 0 48 12.5t46 56.5h37z" />
    <glyph glyph-name="estimated" unicode="&#x212e;" horiz-adv-x="979" 
d="M945 339h-654q-5 0 -5 -4v-198q0 -13 9 -22q103 -108 247 -108q76 0 144 32t116 88h58q-55 -65 -139 -102.5t-180 -37.5q-167 0 -285 106t-118 256q0 151 118 257t285 106q168 0 286 -106t118 -257v-10zM797 365v199q0 14 -10 24q-105 103 -245 103q-142 0 -246 -107
q-10 -9 -10 -24v-195q0 -6 5 -6h502q4 0 4 6z" />
    <glyph glyph-name="partialdiff" unicode="&#x2202;" horiz-adv-x="561" 
d="M299 438h1q73 0 98 -55q29 63 46 115q34 92 21 151q-14 61 -91 61q-67 0 -167 -69q-15 0 -22 37t7 59q80 40 160 40q150 0 186 -148q25 -105 -15 -243q-42 -145 -121 -245q-118 -154 -273 -154q-87 0 -124 53.5t-10 147.5q28 101 112 174q88 76 192 76zM316 387h-1
q-51 0 -100 -56q-32 -41 -61.5 -101.5t-45.5 -118.5q-26 -85 37 -85q46 0 122 108q58 83 106 199q-3 20 -17.5 37t-39.5 17z" />
    <glyph glyph-name="Delta" unicode="&#x2206;" horiz-adv-x="662" 
d="M527 0h-593l12 40l447 656l66 15l79 -671zM371 67l-47 446l-298 -446h345z" />
    <glyph glyph-name="product" unicode="&#x220f;" horiz-adv-x="834" 
d="M808 709v-37q-65 -5 -79.5 -21.5t-14.5 -81.5v-509q0 -68 14.5 -85.5t78.5 -23.5v-37h-311v37q52 4 63 20.5t11 87.5v566q0 25 -7 31.5t-32 6.5h-128q-24 0 -30 -5.5t-6 -29.5v-569q0 -70 9 -87t57 -21v-37h-304v37q63 5 78.5 23t15.5 85v510q0 65 -15.5 81.5t-81.5 21.5
v37h682z" />
    <glyph glyph-name="summation" unicode="&#x2211;" horiz-adv-x="677" 
d="M655 134l-50 -229h-476v36l217 312l-213 419v37h473q2 -33 12 -184l-37 -8q-18 69 -38 106q-13 25 -34 33.5t-74 8.5h-132l163 -310l-223 -329h225q70 0 93.5 18t56.5 100z" />
    <glyph glyph-name="minus" unicode="&#x2212;" horiz-adv-x="600" 
d="M540 180h-480v120h480v-120z" />
    <glyph glyph-name="uni2215" unicode="&#x2215;" horiz-adv-x="167" 
d="M334 714l-395 -728h-106l396 728h105z" />
    <glyph glyph-name="uni2219" unicode="&#x2219;" horiz-adv-x="278" 
d="M119 344q43 0 74 -30.5t31 -73.5q0 -42 -29.5 -74t-75.5 -32q-43 0 -74 31t-31 75q0 43 31 73.5t74 30.5z" />
    <glyph glyph-name="radical" unicode="&#x221a;" horiz-adv-x="677" 
d="M669 878l-182 -1054l-32 -13l-211 548l-89 -39l-14 44l196 85l137 -382h3l138 821z" />
    <glyph glyph-name="infinity" unicode="&#x221e;" horiz-adv-x="798" 
d="M753 289v-1q0 -81 -49 -129.5t-114 -48.5q-46 0 -88 23t-86 86q-42 -54 -83.5 -81.5t-96.5 -27.5q-65 0 -112.5 48.5t-47.5 124.5q0 78 48.5 127t120.5 49q97 0 174 -105q2 2 6 7q25 30 42 46.5t52.5 34t74.5 17.5q67 0 113 -47t46 -123zM246 190h2q34 0 62 23t62 66
q-26 37 -38.5 53t-37 32t-52.5 16q-40 0 -63 -26.5t-23 -71.5q0 -38 25.5 -65t62.5 -27zM587 380h-2q-10 0 -20.5 -3t-18 -6t-18 -11.5t-15.5 -12t-15.5 -15.5t-13 -15t-13.5 -16t-11 -14q42 -57 69 -77t62 -20t57 29.5t22 62.5q0 42 -23 70t-60 28z" />
    <glyph glyph-name="integral" unicode="&#x222b;" horiz-adv-x="524" 
d="M268 -19l-22 399q-5 93 1 167.5t20.5 123.5t33.5 83.5t43 52.5t45.5 26t44.5 8q30 0 56 -16.5t26 -45.5q0 -32 -20 -49t-46 -17q-18 0 -28 17.5t-16 35t-15 17.5q-10 0 -15 -11t-8 -43.5t1 -92.5l20 -365q7 -124 -6 -220.5t-42 -153.5t-66 -85.5t-82 -28.5
q-33 0 -56.5 18.5t-23.5 45.5q-1 30 23 50t52 20q15 0 24.5 -19t16 -38.5t15.5 -19.5q32 0 24 141z" />
    <glyph glyph-name="approxequal" unicode="&#x2248;" horiz-adv-x="562" 
d="M474 463l55 -50q-26 -48 -62.5 -77t-75.5 -29q-49 0 -106 37q-47 33 -79 33q-20 0 -37.5 -11.5t-26 -23t-24.5 -34.5l-55 48q22 45 62.5 75t86.5 30t99 -33q4 -2 12.5 -8t11.5 -7.5t10 -5.5t9.5 -5.5t8 -4t9.5 -3.5t8.5 -1.5t9.5 -0.5q41 0 84 71zM474 271l55 -50
q-26 -48 -62.5 -77t-76.5 -29q-46 0 -105 37q-48 34 -79 34q-20 0 -38.5 -13t-24.5 -21.5t-25 -35.5l-55 48q22 45 62.5 75t86.5 30q9 0 17.5 -1t15 -2t14 -4t12 -4.5t11.5 -5t9.5 -5t10.5 -6t9 -5.5q5 -3 19 -12t20.5 -12.5t17.5 -7.5t21 -4q18 0 33.5 10.5t25 23
t26.5 37.5z" />
    <glyph glyph-name="notequal" unicode="&#x2260;" horiz-adv-x="585" 
d="M453 515l-35 -81h122v-86h-153l-53 -127h206v-86h-239l-46 -109l-67 26l35 83h-123v86h155l53 127h-208v86h240l45 107z" />
    <glyph glyph-name="lessequal" unicode="&#x2264;" horiz-adv-x="611" 
d="M564 104l-432 219v93l432 219v-99l-349 -165v-2l349 -166v-99zM568 -19h-439v88h439v-88z" />
    <glyph glyph-name="greaterequal" unicode="&#x2265;" horiz-adv-x="611" 
d="M134 635l432 -219v-93l-432 -219v99l349 166v2l-349 165v99zM566 -19h-437v88h437v-88z" />
    <glyph glyph-name="lozenge" unicode="&#x25ca;" horiz-adv-x="681" 
d="M636 339l-190 -411h-106l-189 411l192 413h104zM540 339l-144 324h-3l-146 -324l146 -326h3z" />
    <glyph glyph-name="fi" unicode="&#xfb01;" 
d="M-43 0l101 400h-67l9 38q4 18 16 26.5t24.5 10t27.5 10.5t24 28q54 110 111.5 155.5t165.5 45.5q76 0 124.5 -30.5t48.5 -81.5q0 -35 -23.5 -65.5t-69.5 -30.5q-32 0 -51.5 16.5t-19.5 47.5q0 7 4 21.5t4 22.5q0 24 -30 24q-41 0 -61.5 -34.5t-45.5 -123.5h210
q11 0 25.5 1t33 2.5t28.5 2.5l-79 -324q-9 -36 -7 -41q0 -26 22 -26q15 0 40 15l24 -46q-35 -35 -78.5 -56.5t-83.5 -21.5q-50 0 -77 23t-27 65q0 27 9 65l46 190q8 34 8 51q0 10 -9 15t-19 5h-84l-103 -400h-171z" />
    <glyph glyph-name="fl" unicode="&#xfb02;" 
d="M342 480l-22 -80h-89l-103 -400h-171l101 400h-67l9 38q4 18 16 26.5t24.5 10t27.5 10.5t24 28q54 110 111.5 155.5t165.5 45.5q45 0 90 -14h139l-131 -538q-9 -38 -9 -41q0 -24 22 -24q15 0 40 15l24 -46q-39 -39 -75.5 -58.5t-85.5 -19.5q-48 0 -75.5 27.5t-27.5 70.5
q0 18 13 72l90 383q-5 12 -5 26q0 10 2 26.5t2 24.5q0 20 -27 20q-34 0 -59.5 -37.5t-46.5 -120.5h93z" />
    <glyph glyph-name="a.superior" horiz-adv-x="334" 
d="M373 714l-55 -194q-5 -15 -5 -26q0 -18 13 -18q8 0 23 10l11 8l10 -20q-10 -27 -41.5 -45.5t-63.5 -18.5q-54 0 -71 52q-47 -52 -94 -52q-35 0 -55.5 26.5t-20.5 63.5q0 92 61.5 153t131.5 61q24 0 46.5 -15t35.5 -15q9 0 74 30zM199 507l40 135q2 5 2 13q0 9 -13 9
q-34 0 -59 -60t-25 -93q0 -25 22 -25q7 0 19.5 9t13.5 12z" />
    <glyph glyph-name="o.superior" horiz-adv-x="334" 
d="M38 521q0 88 60.5 140.5t143.5 52.5q62 0 97 -30.5t35 -80.5q0 -88 -60.5 -140.5t-143.5 -52.5q-62 0 -97 30.5t-35 80.5zM258 644q0 24 -22 24q-34 0 -58 -72.5t-24 -115.5q0 -24 21 -24q34 0 58.5 72.5t24.5 115.5z" />
    <glyph glyph-name="one.superior" horiz-adv-x="333" 
d="M185 618h-65l11 38l137 58h69l-96 -328q-4 -15 -4 -26q0 -16 14.5 -24.5t14.5 -18.5q0 -7 -3 -14l-6 -17h-211l5 23q4 17 30 28.5t31 29.5z" />
    <glyph glyph-name="two.superior" horiz-adv-x="333" 
d="M328 431l-43 -145h-289l21 72l67 50q71 53 113.5 107.5t42.5 96.5q0 50 -39 50q-29 0 -29 -17q0 -1 7 -11t7 -28q0 -21 -16.5 -41t-42.5 -20q-49 0 -49 54q0 42 44 78.5t114 36.5q52 0 90 -29t38 -75q0 -103 -144 -170l-109 -51v-1h107q26 0 41 6.5t19 15t14 15t27 6.5h9
z" />
    <glyph glyph-name="three.superior" horiz-adv-x="333" 
d="M143 483l10 42q48 1 76.5 28t28.5 70q0 23 -14 34t-34 11q-28 0 -28 -12q0 -2 7 -13.5t7 -24.5q0 -24 -16.5 -39.5t-43.5 -15.5q-25 0 -36.5 14t-11.5 34q0 40 38.5 71.5t113.5 31.5q53 0 93.5 -24.5t40.5 -66.5q0 -47 -40.5 -74t-92.5 -33v-2q52 -4 74 -25.5t22 -59.5
q0 -60 -56.5 -105.5t-143.5 -45.5q-52 0 -88.5 28t-36.5 67q0 33 19.5 54t46.5 21q23 0 36.5 -13.5t13.5 -32.5q0 -15 -5 -25t-11.5 -14t-11.5 -8.5t-5 -9.5q0 -15 25 -15q41 0 67 32t26 66q0 18 -4.5 29t-15 16t-20.5 7t-30 3z" />
    </font>
</defs>
</svg>
